<?xml version="1.0" encoding="iso-8859-1"?>
<!-- Generator: Adobe Illustrator 16.0.3, SVG Export Plug-In . SVG Version: 6.00 Build 0)  -->
<!DOCTYPE svg PUBLIC "-//W3C//DTD SVG 1.1//EN" "http://www.w3.org/Graphics/SVG/1.1/DTD/svg11.dtd">
<svg version="1.1" id="Layer_1" xmlns="http://www.w3.org/2000/svg" xmlns:xlink="http://www.w3.org/1999/xlink" x="0px" y="0px"
	 viewBox="0 0 79.2 79.2" enable-background="new 0 0 79.2 79.2" xml:space="preserve">
<g>
	<g>
		<path style="fill:#4B79BC;" d="M39.796,75.265c-19.883,0-36-16.117-36-36c0-19.883,16.117-36,36-36V75.265z"/>
		<path style="fill:#6DAADC;" d="M39.796,3.265c19.882,0,36,16.117,36,36c0,19.883-16.116,36-36,36V3.265z"/>
	</g>
	<path style="fill:#FFFFFF;" d="M59.071,25.55c-0.283-0.281-0.686-0.441-1.07-0.434l-1.815,0.018
		c-5.767,0.058-11.745,1.007-16.161,2.541c-4.415-1.533-10.394-2.483-16.161-2.541l-1.816-0.018c-0.416-0.01-0.786,0.152-1.07,0.434
		c-0.284,0.282-0.444,0.666-0.444,1.066v25.539c0,0.822,0.663,1.492,1.485,1.5l1.778,0.018c6.818,0.072,12.275,1.191,15.107,2.216
		l0.609,0.221c0.012,0.004,0.024,0.002,0.036,0.007c0.146,0.049,0.296,0.075,0.449,0.078c0.009,0.001,0.018,0.006,0.026,0.006h0.001
		c0.001,0,0.002,0,0.002,0c0.01,0,0.019-0.005,0.027-0.006c0.152-0.003,0.303-0.029,0.447-0.078
		c0.012-0.004,0.023-0.002,0.035-0.007l0.611-0.221c2.832-1.022,8.287-2.144,15.104-2.216l1.779-0.018
		c0.823-0.008,1.486-0.678,1.486-1.5V26.617C59.516,26.216,59.356,25.833,59.071,25.55z M38.521,52.613
		c-3.276-0.961-8.48-1.872-14.696-1.938l-0.294-0.004v-22.54l0.301,0.003c6.035,0.061,11.358,1.117,14.691,2.191L38.521,52.613z"/>
</g>
</svg>
