<?xml version="1.0" encoding="iso-8859-1"?>
<!-- Generator: Adobe Illustrator 16.0.3, SVG Export Plug-In . SVG Version: 6.00 Build 0)  -->
<!DOCTYPE svg PUBLIC "-//W3C//DTD SVG 1.1//EN" "http://www.w3.org/Graphics/SVG/1.1/DTD/svg11.dtd">
<svg version="1.1" id="Layer_1" xmlns="http://www.w3.org/2000/svg" xmlns:xlink="http://www.w3.org/1999/xlink" x="0px" y="0px"
	 viewBox="0 0 79.2 79.2" enable-background="new 0 0 79.2 79.2" xml:space="preserve">
<g>
	<g>
		<path fill="#4B79BC" d="M39.561,75.265c-19.883,0-36-16.117-36-36s16.117-36,36-36V75.265z"/>
		<path fill="#6DAADC" d="M39.561,3.265c19.881,0,36,16.117,36,36s-16.119,36-36,36V3.265z"/>
	</g>
	<g>
		<circle fill="#FFFFFF" cx="48.417" cy="19.802" r="3.748"/>
		<g>
			<path fill="#FFFFFF" d="M46.918,33.397l-1.727,3.719l6.266-0.245v-0.008c0.49-0.001,0.975-0.21,1.303-0.624
				c0.57-0.721,0.449-1.769-0.271-2.34c-0.295-0.232-0.643-0.344-0.992-0.353v-0.005L46.918,33.397z"/>
			<path fill="#FFFFFF" d="M52.92,63.509l-2.17-13.856l-0.012,0.006c-0.068-0.665-0.379-1.253-0.85-1.676l0.006-0.007l-8.406-8.165
				l0.361-0.778l-0.004-0.001l3.637-7.832l0.002,0.001l1.102-2.371l-0.01-0.005c0.186-0.361,0.301-0.764,0.301-1.198
				c0-0.638-0.234-1.214-0.611-1.669l0.008-0.009l-0.166-0.182c0-0.001,0-0.001,0-0.001l-3.492-3.814
				c-0.004-0.006-0.01-0.012-0.014-0.017l-0.01-0.01l-0.002,0.001c-0.426-0.42-1.012-0.682-1.658-0.682
				c-0.365,0-0.707,0.09-1.016,0.237l-0.004-0.006l-9.01,4.009c-0.912,0.289-1.578,1.134-1.578,2.142
				c0,0.444,0.133,0.855,0.354,1.204l-0.004,0.003l0.014,0.016c0.117,0.18,0.262,0.337,0.422,0.478l4.879,5.522l-1.99,3.625
				l0.02,0.008c-0.311,0.563-0.502,1.199-0.502,1.887c0,1.343,0.674,2.522,1.697,3.235l-0.004,0.003l0.031,0.021
				c0.012,0.008,0.023,0.016,0.035,0.023l11.758,7.864l0.008-0.007c0.072,0.096,0.145,0.192,0.229,0.277l2.215,12.524
				c0.006,0.029,0.01,0.06,0.016,0.089l0.004,0.026l0.004-0.001c0.232,0.998,1.123,1.745,2.193,1.745
				c1.248,0,2.256-1.012,2.256-2.258c0-0.138-0.016-0.271-0.039-0.401L52.92,63.509z M36.295,31.348l-1.818-2.732l2.561-0.981
				L36.295,31.348z"/>
		</g>
		<path fill="#FFFFFF" d="M30.62,43.848l-2.367,5.338l0.006,0.007c-0.002,0.001-0.004,0.002-0.006,0.003v-0.01l-11.029-4.041
			l-0.002,0.005c-0.744-0.3-1.621-0.203-2.281,0.344c-0.961,0.794-1.098,2.217-0.305,3.18c0.258,0.311,0.584,0.524,0.936,0.659
			l-0.002,0.005l0.146,0.053c0.01,0.003,0.02,0.009,0.031,0.011l12.506,4.524v-0.009c0.346,0.168,0.73,0.271,1.141,0.271
			c0.846,0,1.59-0.405,2.07-1.024l0.006,0.008l4.379-5.607L30.62,43.848z"/>
	</g>
</g>
</svg>
