<?xml version="1.0" encoding="utf-8"?>
<!-- Generator: Adobe Illustrator 16.0.3, SVG Export Plug-In . SVG Version: 6.00 Build 0)  -->
<!DOCTYPE svg PUBLIC "-//W3C//DTD SVG 1.1//EN" "http://www.w3.org/Graphics/SVG/1.1/DTD/svg11.dtd">
<svg version="1.1" id="Layer_1" xmlns="http://www.w3.org/2000/svg" xmlns:xlink="http://www.w3.org/1999/xlink" x="0px" y="0px"
	 viewBox="0 0 79.2 79.2" enable-background="new 0 0 79.2 79.2" xml:space="preserve">
<g>
	<g>
		<g>
			<path fill="#4C79BC" d="M38.858,74.867c-19.883,0-36-16.117-36-36c0-19.881,16.117-36,36-36V74.867z"/>
		</g>
		<g>
			<path fill="#6DAADD" d="M38.858,2.867c19.882,0,36,16.119,36,36c0,19.883-16.118,36-36,36V2.867z"/>
		</g>
	</g>
</g>
<g>
	<path opacity="0.5" fill="#FFFFFF" d="M38.274,17.305c0.227-0.953,0.725-1.487,1.081-1.573c0.312-0.075,0.089,0.831,0.104,1.81
		c0.015,0.981-0.278,1.798-0.64,1.739C38.458,19.223,38.018,18.389,38.274,17.305z"/>
	<path fill="#FFFFFF" d="M38.512,16.622c0.125-0.261,0.152-0.301,0.22-0.396c0.13-0.184,0.267-0.318,0.471-0.449
		c0.087-0.057,0.187-0.061,0.234-0.032c0.064,0.039,0.097,0.202,0.082,0.537c-0.004,0.133-0.052,0.306-0.052,0.491
		c0,0.19-0.017,0.273-0.007,0.464c0.006,0.133,0.01,0.221-0.014,0.339c-0.097,0.484-0.417,0.618-0.659,0.524
		C38.389,17.947,37.958,17.776,38.512,16.622z"/>
</g>
<path fill="#FFFFFF" d="M39.415,27.96h-1.211v-8.677c0,0,0.079,0.137,0.309,0.229c0.07,0.028,0.22,0.054,0.296,0.057
	c0.081,0.003,0.248-0.016,0.323-0.046c0.172-0.068,0.283-0.24,0.283-0.24V27.96z"/>
<path fill="#FFFFFF" d="M61.128,47.219c0,1.715-0.193,4.082-1.388,5.209c-1.201,1.127-2.98,1.016-4.808,1.016H23.072
	c-1.781,0-3.491,0.211-4.681-0.865c-1.251-1.131-1.473-3.6-1.473-5.359l0,0c0-1.719,0.232-4.199,1.43-5.326
	c1.197-1.125,2.896-0.896,4.723-0.896h31.861c1.696,0,3.512-0.128,4.682,0.859C60.968,42.996,61.128,45.377,61.128,47.219
	L61.128,47.219z"/>
<path fill="#FFFFFF" d="M53.79,34.433c0,1.53-0.131,3.643-0.938,4.65c-0.813,1.004-2.016,0.907-3.252,0.907H28.04
	c-1.204,0-2.361,0.187-3.166-0.773c-0.847-1.009-0.996-3.212-0.996-4.784l0,0c0-1.534,0.156-3.747,0.967-4.754
	c0.809-1.003,1.959-0.801,3.194-0.801h21.559c1.148,0,2.374-0.11,3.165,0.768C53.681,30.663,53.79,32.788,53.79,34.433L53.79,34.433
	z"/>
<path fill="#FFFFFF" d="M60.307,54.543c-1.22-0.064-3.109-0.057-4.875-0.057H22.224c-1.901,0-3.674-0.016-4.92,0.059
	c-1.249,0.074-1.49,0.236-1.49,0.35c0,0.115,0.23,0.275,1.535,0.35c1.239,0.07,3.022,0.057,4.875,0.057h16.111
	c-0.004,0.068-0.005,0.139-0.005,0.209l-0.462,3.492h-2.27c-0.375,0-0.724-0.018-0.97,0.074c-0.247,0.09-0.294,0.293-0.294,0.432
	c0,0.143,0.045,0.342,0.302,0.436c0.244,0.086,0.596,0.068,0.961,0.068h6.549c0.375,0,0.74,0.01,0.987-0.082
	c0.246-0.09,0.285-0.283,0.285-0.422c0-0.148-0.032-0.342-0.312-0.436c-0.24-0.08-0.612-0.07-0.961-0.07h-2.471l-0.337-3.492
	c0-0.072-0.001-0.141-0.005-0.209h16.098c1.901,0,3.755,0.008,5.009-0.066c1.243-0.072,1.445-0.229,1.445-0.34
	C61.886,54.774,61.717,54.618,60.307,54.543z"/>
<g>
	<path opacity="0.5" fill="#FFFFFF" d="M31.519,17.305c0.226-0.954,0.726-1.488,1.081-1.573c0.313-0.075,0.089,0.831,0.105,1.81
		c0.016,0.98-0.278,1.798-0.639,1.738C31.702,19.222,31.262,18.389,31.519,17.305z"/>
	<path fill="#FFFFFF" d="M31.756,16.622c0.125-0.261,0.153-0.302,0.219-0.396c0.132-0.184,0.267-0.318,0.471-0.449
		c0.088-0.057,0.187-0.061,0.234-0.032c0.065,0.039,0.097,0.202,0.083,0.537c-0.004,0.133-0.052,0.306-0.052,0.49
		c0,0.191-0.017,0.273-0.008,0.465c0.007,0.133,0.011,0.221-0.013,0.339c-0.098,0.483-0.418,0.618-0.66,0.523
		C31.634,17.947,31.203,17.776,31.756,16.622z"/>
</g>
<path fill="#FFFFFF" d="M32.659,27.96h-1.21v-8.677c0,0,0.079,0.137,0.307,0.229c0.071,0.029,0.221,0.055,0.297,0.058
	c0.082,0.003,0.248-0.016,0.323-0.047c0.172-0.068,0.283-0.239,0.283-0.239V27.96z"/>
<g>
	<path opacity="0.5" fill="#FFFFFF" d="M44.978,17.305c0.227-0.954,0.726-1.488,1.081-1.573c0.312-0.075,0.089,0.831,0.104,1.81
		c0.016,0.98-0.279,1.798-0.64,1.738C45.162,19.222,44.723,18.389,44.978,17.305z"/>
	<path fill="#FFFFFF" d="M45.216,16.622c0.125-0.261,0.153-0.302,0.219-0.396c0.132-0.184,0.269-0.318,0.471-0.449
		c0.09-0.057,0.187-0.061,0.234-0.032c0.065,0.039,0.097,0.202,0.084,0.537c-0.005,0.133-0.053,0.306-0.053,0.49
		c0,0.191-0.016,0.273-0.008,0.465c0.008,0.133,0.011,0.221-0.014,0.339c-0.097,0.483-0.418,0.618-0.66,0.523
		C45.093,17.947,44.662,17.776,45.216,16.622z"/>
</g>
<path fill="#FFFFFF" d="M46.12,27.96h-1.212v-8.677c0,0,0.079,0.137,0.308,0.229c0.071,0.029,0.222,0.055,0.297,0.058
	c0.081,0.003,0.25-0.016,0.323-0.047c0.174-0.068,0.284-0.239,0.284-0.239V27.96z"/>
</svg>
