<?xml version="1.0" encoding="utf-8"?>
<!-- Generator: Adobe Illustrator 16.0.3, SVG Export Plug-In . SVG Version: 6.00 Build 0)  -->
<!DOCTYPE svg PUBLIC "-//W3C//DTD SVG 1.1//EN" "http://www.w3.org/Graphics/SVG/1.1/DTD/svg11.dtd">
<svg version="1.1" id="Layer_1" xmlns="http://www.w3.org/2000/svg" xmlns:xlink="http://www.w3.org/1999/xlink" x="0px" y="0px"
	 viewBox="0 0 79.2 79.2" enable-background="new 0 0 79.2 79.2" xml:space="preserve">
<g>
	<g>
		<g>
			<path fill="#4C79BC" d="M38.858,74.867c-19.883,0-36-16.117-36-36c0-19.881,16.117-36,36-36V74.867z"/>
		</g>
		<g>
			<path fill="#6DAADD" d="M38.858,2.867c19.882,0,36,16.119,36,36c0,19.883-16.118,36-36,36V2.867z"/>
		</g>
	</g>
</g>
<line fill="none" stroke="#FFFFFF" stroke-width="1.5" stroke-linecap="round" stroke-miterlimit="10" x1="56.933" y1="20.158" x2="49.267" y2="27.474"/>
<line fill="none" stroke="#FFFFFF" stroke-width="1.5" stroke-linecap="round" stroke-miterlimit="10" x1="20.518" y1="20.287" x2="28.184" y2="27.603"/>
<line fill="none" stroke="#FFFFFF" stroke-width="1.5" stroke-linecap="round" stroke-miterlimit="10" x1="38.746" y1="13.094" x2="38.972" y2="23.688"/>
<line fill="none" stroke="#FFFFFF" stroke-width="1.5" stroke-linecap="round" stroke-miterlimit="10" x1="43.963" y1="53.556" x2="33.753" y2="56.389"/>
<line fill="none" stroke="#FFFFFF" stroke-width="1.5" stroke-linecap="round" stroke-miterlimit="10" x1="43.963" y1="56.666" x2="33.752" y2="59.499"/>
<path fill="none" stroke="#FFFFFF" stroke-width="1.5" stroke-linecap="round" stroke-linejoin="round" stroke-miterlimit="10" d="
	M34.319,62.419c1.365,2.148,7.343,2.336,9.062,0"/>
<path fill="#FFFFFF" stroke="#FFFFFF" stroke-width="1.5" stroke-linecap="round" stroke-linejoin="round" stroke-miterlimit="10" d="
	M49.309,38.935c0-6.353-4.683-11.502-10.459-11.502c-5.776,0-10.458,5.149-10.458,11.502c0,4.268,4.224,7.345,5.248,9.969
	c0.396,1.017,0,4.363,0,4.363l10.211-2.833c0,0-0.172-1.093,0-1.396C45.72,45.739,49.309,43.294,49.309,38.935z M40.871,44.935
	c-0.184,1.296-0.305,5.491-0.305,5.491h-3.159c0,0,0.134-4.097-0.06-5.491c-0.16-1.149-2.693-3.673-1.792-4.47
	c0.735-0.651,2.577,1.681,3.559,1.663c0.912-0.017,2.53-2.228,3.245-1.663C43.284,41.194,41.032,43.786,40.871,44.935z"/>
</svg>
