<?xml version="1.0" encoding="iso-8859-1"?>
<!-- Generator: Adobe Illustrator 16.0.3, SVG Export Plug-In . SVG Version: 6.00 Build 0)  -->
<!DOCTYPE svg PUBLIC "-//W3C//DTD SVG 1.1//EN" "http://www.w3.org/Graphics/SVG/1.1/DTD/svg11.dtd">
<svg version="1.1" id="Layer_1" xmlns="http://www.w3.org/2000/svg" xmlns:xlink="http://www.w3.org/1999/xlink" x="0px" y="0px"
	 viewBox="0 0 79.2 79.2" enable-background="new 0 0 79.2 79.2" xml:space="preserve">
<g>
	<g>
		<g>
			<path fill="#4B79BC" d="M39.657,75.908c-19.883,0-36-16.117-36-36c0-19.881,16.117-36,36-36V75.908z"/>
		</g>
		<g>
			<path fill="#6DAADC" d="M39.657,3.908c19.881,0,36,16.119,36,36c0,19.883-16.119,36-36,36V3.908z"/>
		</g>
	</g>
	<g>
		<g>
			<path fill="#FFFFFF" d="M38.635,53.951v-8.869h-4.049C34.813,49.431,36.504,53.066,38.635,53.951z"/>
		</g>
		<g>
			<path fill="#FFFFFF" d="M34.586,43.082h4.049v-8.873C36.504,35.093,34.813,38.73,34.586,43.082z"/>
		</g>
		<g>
			<path fill="#FFFFFF" d="M29.61,45.082c0.332,3.363,2.328,6.244,5.152,7.813c-1.23-1.977-2.031-4.711-2.174-7.813H29.61z"/>
		</g>
		<g>
			<path fill="#FFFFFF" d="M40.635,34.208v8.873h4.049C44.458,38.73,42.766,35.093,40.635,34.208z"/>
		</g>
		<g>
			<path fill="#FFFFFF" d="M34.762,35.267c-2.824,1.566-4.82,4.449-5.152,7.814h2.979C32.731,39.978,33.532,37.244,34.762,35.267z"
				/>
		</g>
		<g>
			<path fill="#FFFFFF" d="M44.508,35.267c1.23,1.977,2.031,4.711,2.174,7.814h2.977C49.327,39.716,47.331,36.835,44.508,35.267z"/>
		</g>
		<g>
			<path fill="#FFFFFF" d="M40.635,45.082v8.869c2.131-0.885,3.822-4.52,4.049-8.869H40.635z"/>
		</g>
		<g>
			<path fill="#FFFFFF" d="M51.09,23.462c-5.246,0-9.717,3.32-11.434,7.971c-1.713-4.65-6.186-7.971-11.434-7.971
				c-6.729,0-12.186,5.457-12.186,12.184c0,3.377,1.375,6.434,3.596,8.643L39.657,64.31L59.68,44.289
				c2.221-2.209,3.596-5.266,3.596-8.643C63.276,28.919,57.821,23.462,51.09,23.462z M39.635,56.158
				c-6.66,0-12.076-5.418-12.076-12.076c0-6.66,5.416-12.078,12.076-12.078c6.658,0,12.074,5.418,12.074,12.078
				C51.709,50.74,46.293,56.158,39.635,56.158z"/>
		</g>
		<g>
			<path fill="#FFFFFF" d="M44.51,52.892c2.82-1.566,4.816-4.447,5.148-7.811h-2.977C46.54,48.183,45.739,50.916,44.51,52.892z"/>
		</g>
	</g>
</g>
</svg>
