<?xml version="1.0" encoding="iso-8859-1"?>
<!-- Generator: Adobe Illustrator 16.0.3, SVG Export Plug-In . SVG Version: 6.00 Build 0)  -->
<!DOCTYPE svg PUBLIC "-//W3C//DTD SVG 1.1//EN" "http://www.w3.org/Graphics/SVG/1.1/DTD/svg11.dtd">
<svg version="1.1" id="Layer_1" xmlns="http://www.w3.org/2000/svg" xmlns:xlink="http://www.w3.org/1999/xlink" x="0px" y="0px"
	 viewBox="0 0 79.2 79.2" enable-background="new 0 0 79.2 79.2" xml:space="preserve">
<g>
	<g>
		<g>
			<path fill="#4B79BC" d="M39.666,75.797c-19.883,0-36-16.117-36-36s16.117-36,36-36V75.797z"/>
		</g>
		<g>
			<path fill="#6DAADC" d="M39.666,3.797c19.881,0,36,16.117,36,36s-16.119,36-36,36V3.797z"/>
		</g>
	</g>
	<g>
		<g>
			<g>
				<path fill="#FFFFFF" d="M49.228,50.899L49.228,50.899l-0.004-0.002c-0.164-0.07-0.334-0.123-0.508-0.172l-3.406-1.137
					c-1.459,1.436-3.461,2.322-5.654,2.322c-2.189,0-4.193-0.887-5.652-2.32l-3.396,1.135c-0.184,0.049-0.361,0.104-0.531,0.178
					h-0.002l0,0c-1.461,0.617-2.486,2.063-2.486,3.748l0.014,4.07c0.145,2.703,5.482,4.877,12.055,4.877
					c6.574,0,11.91-2.174,12.057-4.877l0.014-4.07C51.726,52.961,50.695,51.514,49.228,50.899z"/>
			</g>
			<g>
				<path fill="#FFFFFF" d="M46.13,40.258c-0.037,0-0.07,0.008-0.107,0.012l0.021-0.17c0-3.602-2.789-6.52-6.389-6.52
					s-6.387,2.918-6.387,6.52l0.021,0.17c-0.035-0.004-0.072-0.012-0.107-0.012c-0.691,0-1.227,0.561-1.227,1.252l0.102,0.816
					c0.084,0.537,0.564,0.947,1.125,0.947c0.166,0,0.324-0.041,0.467-0.105l0.15,1.238c0.443,2.801,2.934,4.883,5.854,4.883
					c2.928,0,5.418-2.141,5.859-4.941l0.148-1.178c0.145,0.063,0.303,0.104,0.469,0.104c0.561,0,1.041-0.41,1.125-0.947v-0.008l0,0
					l0.102-0.809C47.357,40.819,46.822,40.258,46.13,40.258z M42.884,45.379c-0.889,0.889-2.059,1.334-3.229,1.334
					c-1.168,0-2.336-0.445-3.227-1.334c-0.25-0.252-0.25-0.658,0-0.908c0.25-0.252,0.656-0.252,0.906,0
					c1.279,1.277,3.361,1.279,4.643,0c0.25-0.252,0.654-0.252,0.906,0C43.136,44.721,43.136,45.127,42.884,45.379z"/>
			</g>
		</g>
		<g>
			<g>
				<path fill="#FFFFFF" d="M61.294,37.655l-0.006-0.002c-0.164-0.066-0.334-0.121-0.508-0.168l-3.408-1.137
					c-1.457,1.434-3.461,2.32-5.65,2.32c-1.086,0-2.125-0.219-3.076-0.613c0.023,0.107,0.053,0.213,0.07,0.322
					c0.893,0.748,1.463,1.875,1.463,3.133v0.176l-0.021,0.174l-0.08,0.635v0.053l-0.033,0.217c-0.188,1.184-0.91,2.186-1.896,2.773
					c-0.16,0.631-0.395,1.229-0.688,1.793l2.086,0.697c0.287,0.08,0.531,0.164,0.73,0.25l0.021,0.008l0.023,0.01
					c1.076,0.453,1.979,1.162,2.682,2.029c5.971-0.26,10.637-2.32,10.773-4.846l0.014-4.068
					C63.791,39.719,62.759,38.272,61.294,37.655z"/>
			</g>
			<g>
				<path fill="#FFFFFF" d="M58.195,27.016c-0.037,0-0.072,0.008-0.107,0.012l0.021-0.17c0-3.602-2.789-6.518-6.387-6.518
					c-3.6,0-6.389,2.916-6.389,6.518l0.021,0.17c-0.035-0.004-0.07-0.012-0.107-0.012c-0.691,0-1.227,0.559-1.227,1.25l0.102,0.818
					c0.084,0.539,0.564,0.949,1.125,0.949c0.166,0,0.324-0.039,0.469-0.105l0.148,1.238c0.443,2.799,2.934,4.881,5.855,4.881
					c2.926,0,5.416-2.141,5.857-4.941l0.148-1.178c0.145,0.066,0.301,0.105,0.469,0.105c0.561,0,1.041-0.41,1.125-0.949l0.002-0.006
					v-0.002l0.1-0.811C59.421,27.575,58.886,27.016,58.195,27.016z M54.949,32.137c-0.891,0.889-2.059,1.336-3.229,1.336
					c-1.168,0-2.336-0.447-3.227-1.336c-0.25-0.25-0.25-0.656,0-0.906c0.25-0.252,0.656-0.252,0.908,0
					c1.277,1.275,3.359,1.277,4.641,0c0.25-0.252,0.654-0.252,0.906,0C55.201,31.481,55.201,31.887,54.949,32.137z"/>
			</g>
		</g>
		<g>
			<g>
				<path fill="#FFFFFF" d="M34.039,27.016c-0.037,0-0.072,0.008-0.107,0.012l0.021-0.17c0-3.602-2.789-6.518-6.389-6.518
					s-6.387,2.916-6.387,6.518l0.021,0.17c-0.035-0.004-0.07-0.012-0.109-0.012c-0.689,0-1.227,0.559-1.227,1.25l0.104,0.818
					c0.084,0.539,0.564,0.949,1.123,0.949c0.168,0,0.326-0.039,0.471-0.105l0.148,1.238c0.441,2.799,2.932,4.881,5.855,4.881
					c2.926,0,5.414-2.141,5.857-4.941l0.15-1.178c0.143,0.066,0.301,0.105,0.467,0.105c0.561,0,1.041-0.41,1.125-0.949v-0.006
					v-0.002l0.102-0.811C35.265,27.575,34.73,27.016,34.039,27.016z M30.792,32.137c-0.891,0.889-2.059,1.336-3.229,1.336
					c-1.168,0-2.338-0.447-3.229-1.336c-0.248-0.25-0.248-0.656,0-0.906c0.254-0.252,0.658-0.252,0.908,0
					c1.279,1.275,3.359,1.277,4.641,0c0.25-0.252,0.658-0.252,0.908,0C31.042,31.481,31.042,31.887,30.792,32.137z"/>
			</g>
			<g>
				<path fill="#FFFFFF" d="M28.974,48.303l0.529-0.225h0.088c0.064-0.018,0.129-0.039,0.197-0.057l2.031-0.678
					c-0.287-0.57-0.518-1.178-0.672-1.818c-0.977-0.588-1.695-1.586-1.879-2.762l-0.006-0.045l-0.006-0.045l-0.102-0.816
					l-0.021-0.174V41.51c0-1.258,0.57-2.385,1.461-3.133c0.021-0.113,0.051-0.223,0.076-0.332c-0.959,0.4-2.01,0.623-3.107,0.623
					c-2.189,0-4.195-0.887-5.652-2.32l-3.398,1.137c-0.182,0.047-0.359,0.102-0.529,0.174l-0.002,0.002
					c-1.461,0.617-2.486,2.064-2.486,3.75l0.012,4.068c0.139,2.529,4.818,4.592,10.801,4.848
					C27.007,49.463,27.904,48.754,28.974,48.303z"/>
			</g>
		</g>
	</g>
</g>
</svg>
