<?xml version="1.0" encoding="iso-8859-1"?>
<!-- Generator: Adobe Illustrator 16.0.3, SVG Export Plug-In . SVG Version: 6.00 Build 0)  -->
<!DOCTYPE svg PUBLIC "-//W3C//DTD SVG 1.1//EN" "http://www.w3.org/Graphics/SVG/1.1/DTD/svg11.dtd">
<svg version="1.1" id="Layer_1" xmlns="http://www.w3.org/2000/svg" xmlns:xlink="http://www.w3.org/1999/xlink" x="0px" y="0px"
	 viewBox="0 0 79.2 79.2" enable-background="new 0 0 79.2 79.2" xml:space="preserve">
<g>
	<g>
		<path fill="#4C79BC" d="M39.409,75.081c-19.883,0-36-16.117-36-36s16.117-36,36-36V75.081z"/>
		<path fill="#6DAADC" d="M39.409,3.081c19.881,0,36,16.117,36,36s-16.119,36-36,36V3.081z"/>
	</g>
	<g>
		<g>
			<path fill="#FFFFFF" d="M41.463,21.102c-0.012,0-0.021,0.003-0.033,0.004l0.007-0.054c0-1.143-0.886-2.068-2.028-2.068
				c-1.142,0-2.027,0.926-2.027,2.068l0.007,0.054c-0.012-0.001-0.023-0.004-0.035-0.004c-0.219,0-0.389,0.178-0.389,0.397
				l0.032,0.259c0.026,0.171,0.18,0.301,0.357,0.301c0.052,0,0.102-0.012,0.149-0.033L37.55,22.4h0
				c0.141,0.889,0.931,1.568,1.858,1.568c0.929,0,1.719-0.679,1.859-1.568h0.002l0.001-0.01l0,0l0.045-0.364
				c0.046,0.021,0.095,0.033,0.147,0.033c0.18,0,0.331-0.13,0.358-0.301v-0.001v0l0.032-0.257
				C41.854,21.28,41.684,21.102,41.463,21.102z M40.434,22.728c-0.282,0.282-0.653,0.424-1.025,0.424
				c-0.371,0-0.742-0.142-1.024-0.424c-0.08-0.08-0.08-0.208,0-0.288s0.208-0.08,0.288,0c0.406,0.406,1.067,0.406,1.473,0
				c0.08-0.08,0.209-0.08,0.288,0S40.513,22.648,40.434,22.728z"/>
		</g>
		<g>
			<g>
				<path fill="#FFFFFF" d="M42.447,24.479L42.447,24.479c-0.053-0.022-0.108-0.039-0.162-0.054l-1.081-0.361
					c-0.064,0.063-0.132,0.122-0.201,0.178l-1.542,1.952l-0.138-0.001l-1.504-1.95c-0.07-0.056-0.139-0.114-0.202-0.178
					l-1.078,0.361c-0.058,0.015-0.114,0.032-0.168,0.056l-0.001,0l0,0c-0.463,0.196-0.789,0.655-0.789,1.189v1.292h0.004
					c0.046,0.858,1.74,1.547,3.825,1.547c2.087,0,3.78-0.689,3.827-1.547h0.003V25.67C43.239,25.134,42.913,24.674,42.447,24.479z"
					/>
			</g>
		</g>
	</g>
	<polygon fill="#FFFFFF" points="59.553,52.064 19.264,52.064 32.436,30.654 46.09,30.654 	"/>
	<g>
		<g>
			<path fill="#FFFFFF" d="M16.308,37.987c-0.02,0-0.037,0.004-0.056,0.006l0.011-0.089c0-1.89-1.464-3.421-3.354-3.421
				s-3.353,1.531-3.353,3.421l0.011,0.089c-0.019-0.001-0.037-0.006-0.057-0.006c-0.362,0-0.643,0.294-0.643,0.657l0.053,0.429
				c0.044,0.282,0.297,0.498,0.59,0.498c0.088,0,0.17-0.021,0.247-0.055l0.076,0.619h0.001c0.232,1.47,1.539,2.593,3.074,2.593
				s2.842-1.123,3.075-2.593h0.001l0.003-0.017v0l0.075-0.602c0.074,0.034,0.157,0.055,0.244,0.055c0.295,0,0.547-0.215,0.591-0.498
				l0.001-0.003v0l0.053-0.425C16.953,38.281,16.671,37.987,16.308,37.987z M14.605,40.674c-0.467,0.467-1.08,0.701-1.695,0.701
				c-0.613,0-1.228-0.234-1.694-0.701c-0.132-0.131-0.132-0.345,0-0.476s0.345-0.131,0.477,0c0.671,0.671,1.765,0.671,2.437,0
				c0.133-0.131,0.345-0.131,0.477,0C14.736,40.33,14.736,40.543,14.605,40.674z"/>
		</g>
		<g>
			<g>
				<path fill="#FFFFFF" d="M17.935,43.571h-0.004c-0.085-0.037-0.176-0.064-0.266-0.09l-1.788-0.598
					c-0.106,0.104-0.218,0.201-0.334,0.294l-2.55,3.228l-0.229-0.001l-2.488-3.226c-0.115-0.092-0.229-0.189-0.334-0.294
					L8.16,43.481c-0.097,0.025-0.189,0.054-0.278,0.092H7.879l0,0c-0.767,0.324-1.304,1.084-1.304,1.969v2.135h0.006
					c0.077,1.42,2.878,2.56,6.328,2.56c3.451,0,6.252-1.14,6.328-2.56h0.006v-2.135C19.244,44.655,18.705,43.894,17.935,43.571z"/>
			</g>
		</g>
	</g>
	<g>
		<g>
			<path fill="#FFFFFF" d="M68.891,37.986c-0.02,0-0.037,0.005-0.055,0.006l0.01-0.089c0-1.89-1.463-3.421-3.354-3.421
				c-1.889,0-3.352,1.531-3.352,3.421l0.01,0.089c-0.018-0.001-0.037-0.006-0.057-0.006c-0.361,0-0.643,0.295-0.643,0.657
				l0.053,0.429c0.045,0.282,0.297,0.498,0.59,0.498c0.088,0,0.17-0.021,0.248-0.056l0.076,0.619l0,0
				c0.232,1.47,1.539,2.593,3.074,2.593s2.842-1.123,3.076-2.593l0,0l0.004-0.017l0,0l0.074-0.602
				c0.074,0.033,0.158,0.055,0.244,0.055c0.295,0,0.547-0.216,0.592-0.498v-0.003v-0.001l0.053-0.425
				C69.536,38.281,69.254,37.986,68.891,37.986z M67.188,40.674c-0.467,0.467-1.08,0.7-1.695,0.7c-0.613,0-1.227-0.233-1.693-0.7
				c-0.133-0.132-0.133-0.345,0-0.477c0.131-0.132,0.344-0.132,0.477,0c0.67,0.671,1.764,0.671,2.436,0
				c0.133-0.132,0.346-0.132,0.477,0S67.319,40.542,67.188,40.674z"/>
		</g>
		<g>
			<g>
				<path fill="#FFFFFF" d="M70.518,43.571l-0.004-0.001c-0.084-0.036-0.176-0.064-0.266-0.09l-1.787-0.597
					c-0.107,0.104-0.219,0.201-0.334,0.294l-2.551,3.227h-0.229l-2.488-3.226c-0.115-0.093-0.229-0.19-0.334-0.294l-1.783,0.596
					c-0.096,0.025-0.189,0.055-0.277,0.092l-0.002,0.001l0,0c-0.768,0.324-1.305,1.083-1.305,1.968v2.135h0.006
					c0.078,1.42,2.879,2.561,6.328,2.561c3.451,0,6.252-1.141,6.328-2.561h0.006v-2.135C71.827,44.654,71.288,43.894,70.518,43.571z
					"/>
			</g>
		</g>
	</g>
	<g>
		<path fill="#FFFFFF" d="M52.554,32.119L52.554,32.119l0.003,0c0.072-0.03,0.147-0.055,0.224-0.076l1.506-0.502
			c0.644,0.634,1.529,1.026,2.497,1.026c0.969,0,1.854-0.392,2.499-1.025l1.502,0.501c0.08,0.021,0.157,0.046,0.233,0.078l0.002,0
			l0,0c0.645,0.273,1.098,0.912,1.098,1.657c0,0-1.217,0.691-1.502,1.027c-0.205,0.243-0.561,0.764-0.807,1.219
			c-0.127,0.236-0.259,0.449-0.342,0.592c-0.89,1.527,0.222,1.115-2.684,1.115c-2.904,0-5.262-0.96-5.326-2.154h-0.006v-1.799
			C51.452,33.031,51.907,32.391,52.554,32.119z"/>
		<path fill="#FFFFFF" d="M53.381,27.971l0.044,0.357v0l0.001,0.003c0.037,0.237,0.249,0.418,0.498,0.418
			c0.073,0,0.143-0.017,0.205-0.046l0.064,0.506v0l0.002,0.014l0,0c0.197,1.237,1.297,2.183,2.589,2.183
			c1.291,0,2.392-0.945,2.587-2.183h0.002l0.064-0.521c0.063,0.029,0.133,0.046,0.207,0.046c0.248,0,0.46-0.181,0.497-0.418
			l0.046-0.361c0-0.306-0.237-0.553-0.543-0.553c-0.017,0-0.031,0.003-0.048,0.005l0.01-0.076c0-1.591-1.231-2.88-2.823-2.88
			c-1.59,0-2.822,1.289-2.822,2.88l0.011,0.076c-0.017-0.002-0.031-0.005-0.048-0.005C53.619,27.417,53.381,27.665,53.381,27.971z
			 M55.358,29.279c0.111-0.111,0.291-0.111,0.401,0c0.565,0.565,1.484,0.565,2.051,0c0.11-0.111,0.289-0.111,0.401,0
			c0.109,0.111,0.109,0.291,0,0.401c-0.394,0.393-0.911,0.59-1.427,0.59c-0.517,0-1.034-0.197-1.427-0.59
			C55.248,29.57,55.248,29.39,55.358,29.279z"/>
	</g>
	<g>
		<path fill="#FFFFFF" d="M25.861,32.12L25.861,32.12l-0.003-0.001c-0.072-0.03-0.147-0.055-0.224-0.075l-1.506-0.503
			c-0.644,0.634-1.529,1.026-2.497,1.026c-0.969,0-1.854-0.393-2.499-1.025l-1.502,0.501c-0.08,0.021-0.157,0.046-0.233,0.077
			l-0.002,0.001l0,0c-0.645,0.272-1.098,0.912-1.098,1.657c0,0,1.217,0.69,1.502,1.027c0.205,0.242,0.561,0.764,0.807,1.219
			c0.127,0.236,0.259,0.449,0.342,0.592c0.89,1.527-0.222,1.115,2.684,1.115c2.904,0,5.262-0.961,5.326-2.154h0.006v-1.799
			C26.963,33.031,26.508,32.391,25.861,32.12z"/>
		<path fill="#FFFFFF" d="M24.491,27.417c-0.017,0-0.031,0.003-0.048,0.005l0.011-0.076c0-1.591-1.232-2.88-2.822-2.88
			c-1.592,0-2.823,1.289-2.823,2.88l0.01,0.076c-0.017-0.002-0.031-0.005-0.048-0.005c-0.306,0-0.543,0.247-0.543,0.554l0.046,0.36
			c0.037,0.237,0.249,0.419,0.497,0.419c0.074,0,0.144-0.018,0.207-0.047l0.064,0.521h0.002c0.195,1.237,1.296,2.183,2.587,2.183
			c1.292,0,2.392-0.945,2.589-2.183l0,0l0.002-0.014V29.21l0.064-0.507c0.063,0.029,0.132,0.047,0.205,0.047
			c0.249,0,0.461-0.182,0.498-0.419l0.001-0.003l0,0l0.044-0.357C25.034,27.665,24.796,27.417,24.491,27.417z M23.057,29.68
			c-0.393,0.393-0.91,0.59-1.427,0.59c-0.516,0-1.033-0.197-1.427-0.59c-0.109-0.11-0.109-0.29,0-0.4
			c0.112-0.111,0.291-0.111,0.401,0c0.566,0.564,1.485,0.564,2.051,0c0.11-0.111,0.29-0.111,0.401,0
			C23.167,29.39,23.167,29.57,23.057,29.68z"/>
	</g>
</g>
<circle fill="#FFFFFF" cx="20.166" cy="24.949" r="1.281"/>
<circle fill="#4C79BC" cx="18.749" cy="28.508" r="0.136"/>
<circle fill="#4C79BC" cx="24.538" cy="28.508" r="0.136"/>
<circle fill="#FFFFFF" cx="67.426" cy="34.868" r="1.281"/>
<circle fill="#6DAADC" cx="68.984" cy="39.133" r="0.182"/>
<circle fill="#6DAADC" cx="62" cy="39.133" r="0.182"/>
</svg>
