<?xml version="1.0" encoding="iso-8859-1"?>
<!-- Generator: Adobe Illustrator 16.0.3, SVG Export Plug-In . SVG Version: 6.00 Build 0)  -->
<!DOCTYPE svg PUBLIC "-//W3C//DTD SVG 1.1//EN" "http://www.w3.org/Graphics/SVG/1.1/DTD/svg11.dtd">
<svg version="1.1" id="Layer_1" xmlns="http://www.w3.org/2000/svg" xmlns:xlink="http://www.w3.org/1999/xlink" x="0px" y="0px"
	 viewBox="0 0 79.2 79.2" enable-background="new 0 0 79.2 79.2" xml:space="preserve">
<g>
	<g>
		<g>
			<path fill="#4B79BC" d="M39.302,75.078c-19.883,0-36-16.117-36-36c0-19.881,16.117-36,36-36V75.078z"/>
		</g>
		<g>
			<path fill="#6DAADC" d="M39.302,3.078c19.883,0,36,16.119,36,36c0,19.883-16.117,36-36,36V3.078z"/>
		</g>
	</g>
	<path fill="#FFFFFF" d="M64.433,21.223H35.912c-0.691,0-1.25,0.56-1.25,1.25V40.75c0,0.69,0.559,1.25,1.25,1.25h15.981l8.069,8.451
		c0.242,0.253,0.57,0.387,0.904,0.387c0.188,0,0.379-0.043,0.555-0.131c0.49-0.243,0.766-0.777,0.68-1.317L60.912,42h3.521
		c0.691,0,1.25-0.56,1.25-1.25V22.473C65.683,21.783,65.125,21.223,64.433,21.223z M63.183,39.5h-5.216l1.075,6.365L52.976,39.5
		H37.162V23.723h26.021V39.5z"/>
	<g>
		<path fill="#FFFFFF" d="M47.228,30.583H17.984c-0.828,0-1.5,0.672-1.5,1.5v18.738c0,0.828,0.672,1.5,1.5,1.5h3.733l-1.19,7.401
			c-0.07,0.433,0.15,0.86,0.543,1.055c0.141,0.07,0.293,0.104,0.443,0.104c0.268,0,0.531-0.107,0.725-0.31l7.877-8.251h17.113
			c0.828,0,1.5-0.672,1.5-1.5V32.083C48.728,31.255,48.056,30.583,47.228,30.583z"/>
		<g>
			<path fill="#4B79BC" d="M32.605,47.341c-4.248,0-8.113-2.669-9.615-6.642c-0.293-0.774,0.098-1.64,0.871-1.934
				c0.773-0.291,1.641,0.098,1.936,0.872c1.063,2.813,3.799,4.703,6.809,4.703s5.746-1.89,6.813-4.703
				c0.293-0.774,1.16-1.163,1.934-0.871c0.773,0.293,1.164,1.159,0.871,1.934C40.718,44.672,36.853,47.341,32.605,47.341z"/>
		</g>
	</g>
</g>
</svg>
