<?xml version="1.0" encoding="iso-8859-1"?>
<!-- Generator: Adobe Illustrator 16.0.3, SVG Export Plug-In . SVG Version: 6.00 Build 0)  -->
<!DOCTYPE svg PUBLIC "-//W3C//DTD SVG 1.1//EN" "http://www.w3.org/Graphics/SVG/1.1/DTD/svg11.dtd">
<svg version="1.1" id="Layer_1" xmlns="http://www.w3.org/2000/svg" xmlns:xlink="http://www.w3.org/1999/xlink" x="0px" y="0px"
	 viewBox="0 0 79.2 79.2" enable-background="new 0 0 79.2 79.2" xml:space="preserve">
<g>
	<g>
		<path fill="#4B79BC" d="M39.376,75.6c-19.883,0-36-16.117-36-36c0-19.881,16.117-36,36-36V75.6z"/>
		<path fill="#6DAADC" d="M39.376,3.6c19.881,0,36,16.119,36,36c0,19.883-16.119,36-36,36V3.6z"/>
	</g>
	<g>
		<path fill="#FFFFFF" d="M45.962,32.588c-0.74-1.559-3.313-3.078-6.352-3.078c-2.766,0-5.455,1.052-5.496,3.35
			c0,2.336,2.885,2.844,5.768,3.078c5.809,0.623,12.08,2.259,12.08,9.194c0,5.066-3.273,8.142-9.391,8.767V57.6H37.23v-3.662
			c-4.594-0.469-8.803-3.078-10.441-7.053l5.068-2.453c1.129,2.453,4.559,4.246,7.754,4.246c3.543,0,6.23-0.508,6.23-3.546
			c0-2.454-3.039-3.467-6.426-3.741c-5.727-0.543-11.338-1.673-11.299-8.531c0.043-5.144,4.479-7.637,9.275-8.026V21.6h5.139v3.234
			c3.395,0.389,6.471,1.831,8.221,5.531L45.962,32.588z"/>
	</g>
</g>
</svg>
