<?xml version="1.0" encoding="iso-8859-1"?>
<!-- Generator: Adobe Illustrator 16.0.3, SVG Export Plug-In . SVG Version: 6.00 Build 0)  -->
<!DOCTYPE svg PUBLIC "-//W3C//DTD SVG 1.1//EN" "http://www.w3.org/Graphics/SVG/1.1/DTD/svg11.dtd">
<svg version="1.1" id="Layer_1" xmlns="http://www.w3.org/2000/svg" xmlns:xlink="http://www.w3.org/1999/xlink" x="0px" y="0px"
	 viewBox="0 0 79.2 79.2" enable-background="new 0 0 79.2 79.2" xml:space="preserve">
<g>
	<g>
		<path fill="#4B79BC" d="M39.19,75.407c-19.882,0-36-16.117-36-36c0-19.881,16.118-36,36-36V75.407z"/>
		<path fill="#6DAADC" d="M39.19,3.407c19.883,0,36,16.119,36,36c0,19.883-16.117,36-36,36V3.407z"/>
	</g>
	<g>
		<g>
			<path fill="#FFFFFF" d="M21.234,31.831c-0.299-0.26-0.543-0.148-0.543,0.248v15.947c0,0.396,0.237,0.5,0.528,0.23l8.607-7.99
				c0.291-0.27,0.284-0.703-0.015-0.963L21.234,31.831z"/>
		</g>
		<g>
			<path fill="#FFFFFF" d="M57.148,31.831c0.299-0.26,0.543-0.148,0.543,0.248v15.947c0,0.396-0.237,0.5-0.528,0.23l-8.607-7.99
				c-0.29-0.27-0.283-0.703,0.016-0.963L57.148,31.831z"/>
		</g>
		<g>
			<path fill="#FFFFFF" d="M38.647,43.196c0.299,0.26,0.787,0.26,1.086,0l17.415-15.169c0.299-0.26,0.219-0.473-0.177-0.473h-35.56
				c-0.396,0-0.476,0.213-0.177,0.473L38.647,43.196z"/>
		</g>
		<g>
			<path fill="#FFFFFF" d="M42.08,44.932c-0.299,0.26-0.822,0.637-1.163,0.838c0,0-0.858,0.506-1.727,0.506
				s-1.726-0.506-1.726-0.506c-0.341-0.201-0.864-0.578-1.163-0.838l-3.27-2.85c-0.299-0.26-0.78-0.252-1.071,0.018l-10.742,9.973
				c-0.291,0.27-0.204,0.49,0.192,0.49h35.56c0.396,0,0.482-0.221,0.192-0.49L46.419,42.1c-0.29-0.27-0.771-0.277-1.07-0.018
				L42.08,44.932z"/>
		</g>
	</g>
</g>
</svg>
