<?xml version="1.0" encoding="iso-8859-1"?>
<!-- Generator: Adobe Illustrator 16.0.3, SVG Export Plug-In . SVG Version: 6.00 Build 0)  -->
<!DOCTYPE svg PUBLIC "-//W3C//DTD SVG 1.1//EN" "http://www.w3.org/Graphics/SVG/1.1/DTD/svg11.dtd">
<svg version="1.1" id="Layer_1" xmlns="http://www.w3.org/2000/svg" xmlns:xlink="http://www.w3.org/1999/xlink" x="0px" y="0px"
	 viewBox="0 0 79.2 79.2" enable-background="new 0 0 79.2 79.2" xml:space="preserve">
<g>
	<g>
		<path fill="#4B79BC" d="M39.974,75.407c-19.883,0-36-16.117-36-36c0-19.881,16.117-36,36-36V75.407z"/>
		<path fill="#6DAADC" d="M39.974,3.407c19.882,0,36,16.119,36,36c0,19.883-16.117,36-36,36V3.407z"/>
	</g>
	<path fill="#FFFFFF" d="M48.973,32.583h-6.131v-4.02c0-1.508,1.002-1.861,1.705-1.861c0.705,0,4.326,0,4.326,0v-6.637l-5.955-0.023
		c-6.615,0-8.121,4.951-8.121,8.117v4.424h-3.824v6.84h3.824c0,8.777,0,19.352,0,19.352h8.044c0,0,0-10.68,0-19.352h5.428
		L48.973,32.583z"/>
</g>
</svg>
