<?xml version="1.0" encoding="utf-8"?>
<!-- Generator: Adobe Illustrator 16.0.3, SVG Export Plug-In . SVG Version: 6.00 Build 0)  -->
<!DOCTYPE svg PUBLIC "-//W3C//DTD SVG 1.1//EN" "http://www.w3.org/Graphics/SVG/1.1/DTD/svg11.dtd">
<svg version="1.1" id="Layer_1" xmlns="http://www.w3.org/2000/svg" xmlns:xlink="http://www.w3.org/1999/xlink" x="0px" y="0px"
	 viewBox="0 0 79.2 79.2" enable-background="new 0 0 79.2 79.2" xml:space="preserve">
<g>
	<g>
		<g>
			<path fill="#4C79BC" d="M38.858,74.867c-19.883,0-36-16.117-36-36c0-19.881,16.117-36,36-36V74.867z"/>
		</g>
		<g>
			<path fill="#6DAADD" d="M38.858,2.867c19.882,0,36,16.119,36,36c0,19.883-16.118,36-36,36V2.867z"/>
		</g>
	</g>
</g>
<path fill="#FFFFFF" d="M38.788,28.156c-5.915,0-10.709,4.794-10.709,10.709s4.794,10.711,10.709,10.711
	c5.915,0,10.71-4.796,10.71-10.711S44.703,28.156,38.788,28.156z M42.378,42.561c-0.988,0.989-2.29,1.484-3.592,1.484
	c-1.299,0-2.599-0.495-3.59-1.484c-0.278-0.28-0.278-0.731,0-1.01c0.278-0.28,0.73-0.28,1.008,0c1.423,1.421,3.74,1.423,5.166,0
	c0.277-0.28,0.728-0.28,1.008,0C42.659,41.83,42.659,42.281,42.378,42.561z"/>
<polygon fill="#FFFFFF" points="41.663,30.788 35.913,30.788 38.85,7.6 "/>
<polygon fill="#FFFFFF" points="41.733,46.6 35.983,46.6 38.92,69.788 "/>
<polygon fill="#FFFFFF" points="30.881,35.885 30.881,41.635 7.694,38.697 "/>
<polygon fill="#FFFFFF" points="46.694,35.814 46.694,41.565 69.881,38.627 "/>
<polygon fill="#FFFFFF" points="35.181,30.993 31.116,35.059 16.796,16.586 "/>
<polygon fill="#FFFFFF" points="46.412,42.125 42.346,46.192 60.82,60.51 "/>
<polygon fill="#FFFFFF" points="31.162,42.221 35.228,46.288 16.755,60.606 "/>
<polygon fill="#FFFFFF" points="42.293,30.99 46.36,35.056 60.678,16.583 "/>
</svg>
