<?xml version="1.0" encoding="iso-8859-1"?>
<!-- Generator: Adobe Illustrator 16.0.3, SVG Export Plug-In . SVG Version: 6.00 Build 0)  -->
<!DOCTYPE svg PUBLIC "-//W3C//DTD SVG 1.1//EN" "http://www.w3.org/Graphics/SVG/1.1/DTD/svg11.dtd">
<svg version="1.1" id="Layer_1" xmlns="http://www.w3.org/2000/svg" xmlns:xlink="http://www.w3.org/1999/xlink" x="0px" y="0px"
	 viewBox="0 0 79.2 79.2" enable-background="new 0 0 79.2 79.2" xml:space="preserve">
<g>
	<g>
		<path fill="#4C79BC" d="M40.19,75.407c-19.882,0-36-16.117-36-36c0-19.881,16.118-36,36-36V75.407z"/>
		<path fill="#6DAADC" d="M40.19,3.407c19.883,0,36,16.119,36,36c0,19.883-16.117,36-36,36V3.407z"/>
	</g>
</g>
<path fill="#FFFFFF" d="M38.361,41.933l7.931-6.589l2.368,2.411L38.293,48.125l-6.134-6.137l3.25-3.262L38.361,41.933z
	 M55.342,21.015v38.92H25.038v-38.92h6.172v-0.992h4.981c0.446-1.797,2.058-3.145,3.996-3.145c1.943,0,3.558,1.348,4.003,3.145
	h4.979v0.992H55.342z M38.329,20.023h3.725c-0.361-0.672-1.045-1.143-1.861-1.143C39.372,18.88,38.686,19.351,38.329,20.023
	 M52.004,24.211h-2.835v0.967H31.21v-0.967h-2.833v32.526h23.628V24.211z"/>
</svg>
