<?xml version="1.0" encoding="iso-8859-1"?>
<!-- Generator: Adobe Illustrator 16.0.3, SVG Export Plug-In . SVG Version: 6.00 Build 0)  -->
<!DOCTYPE svg PUBLIC "-//W3C//DTD SVG 1.1//EN" "http://www.w3.org/Graphics/SVG/1.1/DTD/svg11.dtd">
<svg version="1.1" id="Layer_1" xmlns="http://www.w3.org/2000/svg" xmlns:xlink="http://www.w3.org/1999/xlink" x="0px" y="0px"
	 viewBox="0 0 79.2 79.2" enable-background="new 0 0 79.2 79.2" xml:space="preserve">
<g>
	<g>
		<path fill="#4B79BC" d="M39.421,76.081c-19.883,0-36-16.117-36-36c0-19.881,16.117-36,36-36V76.081z"/>
		<path fill="#6DAADC" d="M39.421,4.081c19.882,0,36,16.119,36,36c0,19.883-16.117,36-36,36V4.081z"/>
	</g>
	<g>
		<path fill="#FFFFFF" d="M52.111,23.867c-1.349-1.506-3.28-2.369-5.302-2.369c-1.754,0-3.439,0.645-4.749,1.818
			c-0.861,0.774-1.521,1.747-1.915,2.82c-0.018,0.039-0.035,0.08-0.049,0.121c-0.146,0.403-0.396,1.34-0.675,2.456
			c-0.279-1.116-0.529-2.053-0.675-2.456c-0.012-0.034-0.026-0.068-0.042-0.103c-0.394-1.081-1.057-2.06-1.924-2.839
			c-1.308-1.172-2.994-1.817-4.747-1.817c-2.021,0-3.954,0.863-5.301,2.368c-1.269,1.414-1.911,3.238-1.808,5.136
			c0.104,1.897,0.94,3.642,2.354,4.909c0.86,0.772,1.905,1.326,3.028,1.606c0.038,0.012,0.076,0.023,0.114,0.033
			c1.32,0.318,8.066,1.094,8.831,1.181c0.057,0.006,0.114,0.01,0.17,0.01s0.113-0.003,0.17-0.01
			c0.765-0.087,7.511-0.863,8.829-1.182c0.035-0.008,0.07-0.018,0.105-0.03c1.125-0.279,2.174-0.834,3.037-1.608
			c1.414-1.269,2.251-3.012,2.354-4.91C54.02,27.104,53.378,25.28,52.111,23.867z M31.204,32.651
			c-0.036-0.011-0.072-0.021-0.109-0.03c-0.673-0.157-1.3-0.483-1.813-0.944c-0.818-0.733-1.302-1.742-1.362-2.839
			c-0.06-1.097,0.311-2.151,1.045-2.97c0.78-0.871,1.898-1.371,3.067-1.371c1.014,0,1.988,0.373,2.744,1.05
			c0.517,0.464,0.907,1.049,1.13,1.692c0.013,0.037,0.028,0.076,0.045,0.113c0.257,0.777,0.949,3.644,1.532,6.149
			C34.931,33.197,32.008,32.822,31.204,32.651z M49.56,31.678c-0.515,0.461-1.142,0.788-1.813,0.944
			c-0.033,0.008-0.068,0.017-0.104,0.028c-0.794,0.17-3.725,0.546-6.284,0.853c0.578-2.489,1.265-5.334,1.526-6.133
			c0.019-0.042,0.036-0.086,0.051-0.13c0.223-0.643,0.612-1.227,1.127-1.69c0.758-0.678,1.732-1.051,2.746-1.051
			c1.169,0,2.287,0.5,3.068,1.372c0.732,0.817,1.104,1.872,1.045,2.969C50.862,29.936,50.378,30.944,49.56,31.678z"/>
		<g>
			<path fill="#FFFFFF" d="M53.233,59.387H25.608c-0.829,0-1.5-0.672-1.5-1.5V40.702c0-0.829,0.671-1.5,1.5-1.5h27.625
				c0.829,0,1.5,0.671,1.5,1.5v17.186C54.733,58.715,54.062,59.387,53.233,59.387z"/>
		</g>
	</g>
</g>
</svg>
