<?xml version="1.0" encoding="iso-8859-1"?>
<!-- Generator: Adobe Illustrator 16.0.3, SVG Export Plug-In . SVG Version: 6.00 Build 0)  -->
<!DOCTYPE svg PUBLIC "-//W3C//DTD SVG 1.1//EN" "http://www.w3.org/Graphics/SVG/1.1/DTD/svg11.dtd">
<svg version="1.1" id="Layer_1" xmlns="http://www.w3.org/2000/svg" xmlns:xlink="http://www.w3.org/1999/xlink" x="0px" y="0px"
	 viewBox="0 0 79.2 79.2" enable-background="new 0 0 79.2 79.2" xml:space="preserve">
<g>
	<g>
		<path fill="#4B79BC" d="M39.358,75.129c-19.882,0-36-16.119-36-36c0-19.883,16.118-36,36-36V75.129z"/>
		<path fill="#6DAADC" d="M39.358,3.13c19.882,0,36,16.117,36,36c0,19.88-16.117,36-36,36V3.13z"/>
	</g>
	<path fill="#FFFFFF" d="M39.359,19.293c-10.938,0-19.836,8.899-19.836,19.838c0,10.938,8.898,19.836,19.836,19.836
		c10.937,0,19.835-8.898,19.835-19.836C59.194,28.192,50.295,19.293,39.359,19.293z M56.118,37.631h-5.242
		c-0.227-5.429-1.67-10.181-3.883-13.488C52.022,26.716,55.594,31.736,56.118,37.631z M37.859,22.58v15.051h-7.018
		C31.195,30.162,34.152,23.934,37.859,22.58z M37.859,40.631V55.68c-3.707-1.354-6.664-7.58-7.018-15.049H37.859z M40.86,55.68
		V40.631h7.018C47.524,48.099,44.567,54.326,40.86,55.68z M40.86,37.631V22.58c3.707,1.354,6.664,7.582,7.018,15.051H40.86z
		 M31.727,24.142c-2.212,3.308-3.656,8.06-3.883,13.489h-5.245C23.123,31.735,26.695,26.715,31.727,24.142z M22.599,40.631h5.245
		c0.228,5.429,1.671,10.18,3.883,13.486C26.695,51.545,23.123,46.526,22.599,40.631z M46.993,54.118
		c2.213-3.309,3.656-8.059,3.883-13.486h5.242C55.594,46.524,52.022,51.543,46.993,54.118z"/>
</g>
</svg>
