<?xml version="1.0" encoding="iso-8859-1"?>
<!-- Generator: Adobe Illustrator 16.0.3, SVG Export Plug-In . SVG Version: 6.00 Build 0)  -->
<!DOCTYPE svg PUBLIC "-//W3C//DTD SVG 1.1//EN" "http://www.w3.org/Graphics/SVG/1.1/DTD/svg11.dtd">
<svg version="1.1" id="Layer_1" xmlns="http://www.w3.org/2000/svg" xmlns:xlink="http://www.w3.org/1999/xlink" x="0px" y="0px"
	 viewBox="0 0 79.2 79.2" enable-background="new 0 0 79.2 79.2" xml:space="preserve">
<g>
	<g>
		<path fill="#4B79BC" d="M39.561,75.407c-19.883,0-36-16.117-36-36c0-19.881,16.117-36,36-36V75.407z"/>
		<path fill="#6DAADC" d="M39.561,3.407c19.883,0,36,16.119,36,36c0,19.883-16.117,36-36,36V3.407z"/>
	</g>
	<g>
		<path fill="#FFFFFF" d="M60.93,36.758H55.2v-5.727c0-0.438-0.355-0.795-0.793-0.795h-1.631c-0.438,0-0.793,0.357-0.793,0.795
			v5.727h-5.73c-0.438,0-0.795,0.355-0.795,0.795v1.631c0,0.439,0.357,0.793,0.795,0.793h5.73v5.732
			c0,0.436,0.355,0.791,0.793,0.791h1.631c0.438,0,0.793-0.355,0.793-0.791v-5.732h5.73c0.436,0,0.789-0.354,0.789-0.793v-1.631
			C61.719,37.114,61.366,36.758,60.93,36.758z"/>
		<path fill="#FFFFFF" d="M41.672,41.782c-1.203-0.854-2.301-2.104-2.32-2.486c0-0.701,0.064-1.037,1.633-2.262
			c2.033-1.588,3.152-3.68,3.152-5.885c0-2.004-0.613-3.783-1.656-5.031h0.807c0.17,0,0.332-0.053,0.465-0.15l2.256-1.635
			c0.281-0.197,0.398-0.557,0.289-0.883c-0.105-0.326-0.41-0.549-0.752-0.549h-10.08c-1.105,0-2.223,0.193-3.322,0.572
			c-3.674,1.266-6.244,4.396-6.244,7.611c0,4.553,3.525,8,8.24,8.111c-0.09,0.361-0.137,0.717-0.137,1.064
			c0,0.701,0.178,1.365,0.543,2.008c-0.043,0-0.084,0-0.129,0c-4.494,0-8.551,2.205-10.094,5.488
			c-0.398,0.854-0.604,1.715-0.604,2.564c0,0.832,0.213,1.631,0.631,2.377c0.969,1.732,3.047,3.074,5.855,3.785
			c1.449,0.367,3.008,0.553,4.627,0.553c1.455,0,2.838-0.188,4.121-0.561c3.996-1.158,6.578-4.098,6.578-7.494
			C45.532,45.723,44.485,43.772,41.672,41.782z M28.942,49.241c0-2.369,3.01-4.447,6.443-4.447h0.092
			c0.746,0.008,1.475,0.117,2.162,0.328c0.234,0.164,0.463,0.318,0.682,0.467c1.59,1.08,2.639,1.795,2.93,2.943
			c0.068,0.289,0.105,0.582,0.105,0.859c0,2.951-2.203,4.447-6.547,4.447C31.52,53.838,28.942,51.819,28.942,49.241z M32.063,26.85
			c0.537-0.613,1.24-0.938,2.029-0.938l0.088,0.002c2.23,0.064,4.363,2.549,4.754,5.535c0.219,1.672-0.152,3.242-0.992,4.201
			c-0.539,0.613-1.23,0.936-2.051,0.936h-0.002h-0.037c-2.182-0.066-4.359-2.643-4.748-5.625
			C30.885,29.295,31.233,27.797,32.063,26.85z"/>
	</g>
</g>
</svg>
