<?xml version="1.0" encoding="utf-8"?>
<!-- Generator: Adobe Illustrator 16.0.3, SVG Export Plug-In . SVG Version: 6.00 Build 0)  -->
<!DOCTYPE svg PUBLIC "-//W3C//DTD SVG 1.1//EN" "http://www.w3.org/Graphics/SVG/1.1/DTD/svg11.dtd">
<svg version="1.1" id="Layer_1" xmlns="http://www.w3.org/2000/svg" xmlns:xlink="http://www.w3.org/1999/xlink" x="0px" y="0px"
	 viewBox="0 0 79.2 79.2" enable-background="new 0 0 79.2 79.2" xml:space="preserve">
<g>
	<g>
		<g>
			<path fill="#4C79BC" d="M38.858,74.867c-19.883,0-36-16.117-36-36c0-19.881,16.117-36,36-36V74.867z"/>
		</g>
		<g>
			<path fill="#6DAADD" d="M38.858,2.867c19.882,0,36,16.119,36,36c0,19.883-16.118,36-36,36V2.867z"/>
		</g>
	</g>
</g>
<g id="Instagram_white_logo.psd">
</g>
<g>
	<g>
		<g>
			<path fill="#FFFFFF" d="M20.242,31.817h7.384v23.747h-7.384V31.817z M23.934,20.01c2.359,0,4.277,1.918,4.277,4.279
				c0,2.363-1.918,4.28-4.277,4.28c-2.366,0-4.278-1.917-4.278-4.28C19.656,21.928,21.568,20.01,23.934,20.01"/>
			<path fill="#FFFFFF" d="M32.255,31.817h7.081v3.243h0.101c0.984-1.866,3.394-3.835,6.983-3.835c7.47,0,8.85,4.917,8.85,11.315
				v13.024h-7.373V44.016c0-2.756-0.054-6.296-3.837-6.296c-3.839,0-4.427,3-4.427,6.097v11.747h-7.378V31.817z"/>
		</g>
	</g>
	<g>
		<polygon fill="#FFFFFF" points="58.224,53.353 58.935,53.353 58.935,55.564 59.32,55.564 59.32,53.353 60.028,53.353 
			60.028,52.967 58.224,52.967 		"/>
		<polygon fill="#FFFFFF" points="62.532,52.967 61.775,54.874 61.02,52.967 60.471,52.967 60.471,55.564 60.855,55.564 
			60.855,53.589 61.648,55.564 61.905,55.564 62.698,53.589 62.698,55.564 63.083,55.564 63.083,52.967 		"/>
	</g>
</g>
</svg>
