<?xml version="1.0" encoding="iso-8859-1"?>
<!-- Generator: Adobe Illustrator 16.0.3, SVG Export Plug-In . SVG Version: 6.00 Build 0)  -->
<!DOCTYPE svg PUBLIC "-//W3C//DTD SVG 1.1//EN" "http://www.w3.org/Graphics/SVG/1.1/DTD/svg11.dtd">
<svg version="1.1" id="Layer_1" xmlns="http://www.w3.org/2000/svg" xmlns:xlink="http://www.w3.org/1999/xlink" x="0px" y="0px"
	 viewBox="0 0 79.2 79.2" enable-background="new 0 0 79.2 79.2" xml:space="preserve">
<g>
	<g>
		<path fill="#4C79BC" d="M40.19,75.407c-19.882,0-36-16.117-36-36c0-19.881,16.118-36,36-36V75.407z"/>
		<path fill="#6DAADC" d="M40.19,3.407c19.883,0,36,16.119,36,36c0,19.883-16.117,36-36,36V3.407z"/>
	</g>
</g>
<path fill="#FFFFFF" d="M37.401,22.995c-0.25-2.944-0.485-5.889-0.729-8.833c-0.032-0.387-0.075-0.773-0.114-1.178
	c-0.157,0.013-0.276,0.022-0.393,0.032c0,0.833-0.001,1.648,0,2.463c0.002,1.646,0.017,3.292,0.003,4.938
	c-0.008,0.973-0.06,1.946-0.093,2.918c-0.009,0.256-0.104,0.44-0.397,0.431c-0.284-0.007-0.333-0.201-0.341-0.438
	c-0.087-2.55-0.178-5.099-0.265-7.649c-0.03-0.88-0.05-1.761-0.075-2.652c-0.148,0-0.265,0-0.415,0c0,0.116,0,0.214,0,0.312
	c-0.014,2.542-0.017,5.083-0.048,7.625c-0.01,0.827-0.089,1.652-0.143,2.478c-0.014,0.219-0.128,0.344-0.367,0.348
	c-0.232,0.004-0.355-0.103-0.396-0.322c-0.015-0.078-0.035-0.154-0.04-0.231c-0.04-0.659-0.104-1.317-0.11-1.977
	c-0.025-2.62-0.033-5.24-0.047-7.86c0-0.131,0-0.263,0-0.392c-0.324-0.102-0.431-0.008-0.442,0.3
	c-0.104,2.761-0.218,5.523-0.333,8.284c-0.026,0.603-0.063,1.207-0.098,1.81c-0.014,0.241-0.153,0.366-0.387,0.381
	c-0.25,0.016-0.329-0.143-0.344-0.359c-0.008-0.112-0.032-0.223-0.032-0.334c0.005-2.754,0.014-5.508,0.021-8.262
	c0.001-0.602,0-1.205,0-1.836c-0.122-0.015-0.238-0.029-0.392-0.048c-0.023,0.25-0.044,0.451-0.061,0.651
	c-0.194,2.375-0.409,4.75-0.575,7.127c-0.108,1.548-0.34,3.093-0.174,4.656c0.163,1.533,0.588,2.923,1.803,3.981
	c0.147,1.449,0.401,4.067,0.439,5.159c0.259,7.459-0.543,29.847-0.543,29.847h3.377c0,0-0.481-22.504-0.321-30.004
	c0.023-1.058,0.172-3.598,0.259-5.013c0.925-0.828,1.44-1.864,1.645-3.075C37.46,25.184,37.494,24.094,37.401,22.995z"/>
<path fill-rule="evenodd" clip-rule="evenodd" fill="#FFFFFF" d="M45.532,64.336c0.119-7.861,0.222-15.721,0.371-23.576
	c0.03-1.575,0.174-3.073-1.577-3.971c-0.402-0.208-0.669-0.977-0.721-1.515c-0.647-6.7,0.363-13.188,1.729-19.787
	c0.252-1.211,2.365-2.824,2.767-2.504c0.906,0.716,0.741,2.246,0.762,3.374c0.297,15.993,0.529,31.987,0.779,47.979
	C48.272,64.336,46.901,64.336,45.532,64.336z"/>
</svg>
