<?xml version="1.0" encoding="iso-8859-1"?>
<!-- Generator: Adobe Illustrator 16.0.3, SVG Export Plug-In . SVG Version: 6.00 Build 0)  -->
<!DOCTYPE svg PUBLIC "-//W3C//DTD SVG 1.1//EN" "http://www.w3.org/Graphics/SVG/1.1/DTD/svg11.dtd">
<svg version="1.1" id="Layer_1" xmlns="http://www.w3.org/2000/svg" xmlns:xlink="http://www.w3.org/1999/xlink" x="0px" y="0px"
	 viewBox="0 0 79.2 79.2" enable-background="new 0 0 79.2 79.2" xml:space="preserve">
<g>
	<g>
		<g>
			<path fill="#4B79BC" d="M40.08,75.908c-19.883,0-36-16.117-36-36c0-19.881,16.117-36,36-36V75.908z"/>
		</g>
		<g>
			<path fill="#6DAADC" d="M40.08,3.908c19.881,0,36,16.119,36,36c0,19.883-16.119,36-36,36V3.908z"/>
		</g>
	</g>
	<g>
		<path fill="#FFFFFF" d="M51.513,23.462c-5.246,0-9.717,3.32-11.434,7.971c-1.715-4.65-6.186-7.971-11.434-7.971
			c-6.73,0-12.186,5.457-12.186,12.184c0,3.377,1.373,6.432,3.596,8.643L40.08,64.31l20.023-20.021
			c2.221-2.211,3.596-5.266,3.596-8.643C63.699,28.919,58.244,23.462,51.513,23.462z M49.929,46.97h-6.953v6.957h-5.791V46.97H30.23
			v-5.789h6.955v-6.953h5.791v6.953h6.953V46.97z"/>
	</g>
</g>
</svg>
