<?xml version="1.0" encoding="iso-8859-1"?>
<!-- Generator: Adobe Illustrator 16.0.3, SVG Export Plug-In . SVG Version: 6.00 Build 0)  -->
<!DOCTYPE svg PUBLIC "-//W3C//DTD SVG 1.1//EN" "http://www.w3.org/Graphics/SVG/1.1/DTD/svg11.dtd">
<svg version="1.1" id="Layer_1" xmlns="http://www.w3.org/2000/svg" xmlns:xlink="http://www.w3.org/1999/xlink" x="0px" y="0px"
	 viewBox="0 0 79.2 79.2" enable-background="new 0 0 79.2 79.2" xml:space="preserve">
<g>
	<g>
		<path fill="#4B79BC" d="M39.711,75.407c-19.883,0-36-16.117-36-36c0-19.881,16.117-36,36-36V75.407z"/>
		<path fill="#6DAADC" d="M39.711,3.407c19.883,0,36,16.119,36,36c0,19.883-16.117,36-36,36V3.407z"/>
	</g>
	<path fill="#FFFFFF" d="M41.643,21.469c-10.574,0-15.908,7.582-15.908,13.904c0,3.83,1.449,7.234,4.559,8.504
		c0.51,0.211,0.967,0.008,1.117-0.555c0.1-0.393,0.342-1.377,0.453-1.789c0.148-0.557,0.092-0.754-0.32-1.24
		c-0.896-1.055-1.469-2.424-1.469-4.365c0-5.623,4.207-10.658,10.957-10.658c5.979,0,9.262,3.65,9.262,8.529
		c0,6.416-2.84,11.836-7.059,11.836c-2.326,0-4.068-1.928-3.512-4.291c0.672-2.816,1.965-5.859,1.965-7.896
		c0-1.822-0.977-3.342-3-3.342c-2.383,0-4.293,2.463-4.293,5.762c0,2.102,0.711,3.523,0.711,3.523s-2.438,10.318-2.865,12.129
		c-0.852,3.6-0.127,8.012-0.066,8.457c0.035,0.266,0.375,0.328,0.529,0.129c0.221-0.287,3.053-3.789,4.018-7.285
		c0.275-0.992,1.568-6.119,1.568-6.119c0.771,1.477,3.033,2.775,5.436,2.775c7.156,0,12.01-6.523,12.01-15.254
		C55.735,27.62,50.143,21.469,41.643,21.469z"/>
</g>
</svg>
