<?xml version="1.0" encoding="iso-8859-1"?>
<!-- Generator: Adobe Illustrator 16.0.3, SVG Export Plug-In . SVG Version: 6.00 Build 0)  -->
<!DOCTYPE svg PUBLIC "-//W3C//DTD SVG 1.1//EN" "http://www.w3.org/Graphics/SVG/1.1/DTD/svg11.dtd">
<svg version="1.1" id="Layer_1" xmlns="http://www.w3.org/2000/svg" xmlns:xlink="http://www.w3.org/1999/xlink" x="0px" y="0px"
	 viewBox="0 0 79.2 79.2" enable-background="new 0 0 79.2 79.2" xml:space="preserve">
<g>
	<g>
		<path fill="#4B79BC" d="M39.421,75.265c-19.883,0-36-16.117-36-36c0-19.881,16.117-36,36-36V75.265z"/>
		<path fill="#6DAADC" d="M39.421,3.265c19.882,0,36,16.119,36,36c0,19.883-16.117,36-36,36V3.265z"/>
	</g>
	<g>
		<path fill="#FFFFFF" d="M44.603,27.207c-0.167-0.167-0.438-0.167-0.605,0L26.655,44.549c-0.1,0.063-0.195,0.133-0.28,0.217
			l-0.311,0.312c-0.298,0.3-0.596,0.788-0.724,1.187L21.98,56.76c-0.148,0.46-0.082,0.934,0.183,1.297
			c0.257,0.353,0.661,0.555,1.109,0.555h0c0.158,0,0.318-0.025,0.478-0.076l10.512-3.346c0.404-0.127,0.895-0.426,1.192-0.725
			l0.312-0.312c0.054-0.054,0.096-0.114,0.141-0.173L53.338,36.55c0.166-0.167,0.166-0.438,0-0.605L44.603,27.207z M27.382,54.885
			l-1.745-1.745l1.949-6.087l5.892,5.891L27.382,54.885z"/>
		<path fill="#FFFFFF" d="M59.088,27.132l-5.676-5.676c-1.008-1.008-2.656-1.008-3.665,0L46.6,24.605l9.342,9.342l3.147-3.148
			C60.097,29.791,60.097,28.141,59.088,27.132z"/>
	</g>
</g>
</svg>
