<?xml version="1.0" encoding="iso-8859-1"?>
<!-- Generator: Adobe Illustrator 16.0.3, SVG Export Plug-In . SVG Version: 6.00 Build 0)  -->
<!DOCTYPE svg PUBLIC "-//W3C//DTD SVG 1.1//EN" "http://www.w3.org/Graphics/SVG/1.1/DTD/svg11.dtd">
<svg version="1.1" id="Layer_1" xmlns="http://www.w3.org/2000/svg" xmlns:xlink="http://www.w3.org/1999/xlink" x="0px" y="0px"
	 viewBox="0 0 79.2 79.2" enable-background="new 0 0 79.2 79.2" xml:space="preserve">
<g>
	<g>
		<path fill="#4B79BC" d="M39.153,75.265c-19.883,0-36-16.117-36-36c0-19.881,16.117-36,36-36V75.265z"/>
		<path fill="#6DAADC" d="M39.153,3.265c19.881,0,36,16.119,36,36c0,19.883-16.119,36-36,36V3.265z"/>
	</g>
	<path fill="#FFFFFF" d="M57.999,36.896l-0.209,0.025c-1.381-9.078-9.195-16.041-18.66-16.041c-9.461,0-17.275,6.961-18.66,16.035
		l-0.164-0.021c-1.957,0-3.543,1.516-3.543,3.473s1.586,3.473,3.543,3.473l0.361-0.045c1.84,8.508,9.402,14.887,18.463,14.887
		c9.063,0,16.625-6.381,18.465-14.893l0.404,0.051c1.957,0,3.545-1.516,3.545-3.473S59.956,36.896,57.999,36.896z M50.026,43.986
		c-1.701,4.492-6.07,7.51-10.873,7.51c-4.805,0-9.174-3.018-10.873-7.508c-0.293-0.775,0.098-1.641,0.871-1.934
		c0.773-0.295,1.641,0.096,1.936,0.871c1.26,3.332,4.502,5.57,8.066,5.57s6.805-2.238,8.066-5.57
		c0.295-0.775,1.162-1.164,1.934-0.873C49.928,42.345,50.319,43.212,50.026,43.986z"/>
</g>
</svg>
