<?xml version="1.0" encoding="iso-8859-1"?>
<!-- Generator: Adobe Illustrator 16.0.3, SVG Export Plug-In . SVG Version: 6.00 Build 0)  -->
<!DOCTYPE svg PUBLIC "-//W3C//DTD SVG 1.1//EN" "http://www.w3.org/Graphics/SVG/1.1/DTD/svg11.dtd">
<svg version="1.1" id="Layer_1" xmlns="http://www.w3.org/2000/svg" xmlns:xlink="http://www.w3.org/1999/xlink" x="0px" y="0px"
	 viewBox="0 0 79.2 79.2" enable-background="new 0 0 79.2 79.2" xml:space="preserve">
<g>
	<g>
		<path fill="#4B79BC" d="M39.561,75.081c-19.883,0-36-16.117-36-36s16.117-36,36-36V75.081z"/>
		<path fill="#6DAADC" d="M39.561,3.081c19.883,0,36,16.117,36,36s-16.117,36-36,36V3.081z"/>
	</g>
	<g>
		<path fill="#FFFFFF" d="M53.958,41.924L53.958,41.924l-0.008-0.002c-0.246-0.104-0.504-0.186-0.764-0.257l-5.125-1.71
			c-2.191,2.158-5.205,3.491-8.5,3.491c-3.297,0-6.311-1.333-8.504-3.49l-5.113,1.708c-0.273,0.072-0.539,0.156-0.795,0.265
			l-0.006,0.001h0.002c-2.197,0.93-3.738,3.105-3.738,5.64v6.122h0.02c0.221,4.066,8.246,7.334,18.135,7.334
			c9.887,0,17.912-3.268,18.131-7.334h0.02V47.57C57.711,45.028,56.163,42.85,53.958,41.924z"/>
		<path fill="#FFFFFF" d="M49.297,25.92c-0.057,0-0.109,0.013-0.162,0.018l0.031-0.256c0-5.416-4.193-9.805-9.605-9.805
			c-5.416,0-9.609,4.389-9.609,9.805l0.033,0.256c-0.055-0.005-0.107-0.018-0.162-0.018c-1.041,0-1.846,0.843-1.846,1.883
			l0.152,1.229c0.127,0.809,0.85,1.426,1.693,1.426c0.25,0,0.486-0.06,0.705-0.158l0.221,1.773h0.002
			c0.666,4.212,4.412,7.431,8.809,7.431c4.398,0,8.143-3.219,8.811-7.431h0.002l0.008-0.047v-0.002l0.215-1.724
			c0.215,0.098,0.453,0.157,0.703,0.157c0.844,0,1.564-0.617,1.691-1.426l0.002-0.009v-0.001l0.15-1.219
			C51.141,26.763,50.336,25.92,49.297,25.92z M44.415,33.624c-1.338,1.338-3.098,2.008-4.855,2.008c-1.756,0-3.516-0.67-4.854-2.008
			c-0.377-0.377-0.377-0.988,0-1.365s0.986-0.377,1.365,0c1.924,1.922,5.053,1.924,6.979,0c0.377-0.377,0.988-0.377,1.365,0
			S44.792,33.247,44.415,33.624z"/>
	</g>
</g>
</svg>
