<?xml version="1.0" encoding="iso-8859-1"?>
<!-- Generator: Adobe Illustrator 16.0.3, SVG Export Plug-In . SVG Version: 6.00 Build 0)  -->
<!DOCTYPE svg PUBLIC "-//W3C//DTD SVG 1.1//EN" "http://www.w3.org/Graphics/SVG/1.1/DTD/svg11.dtd">
<svg version="1.1" id="Layer_1" xmlns="http://www.w3.org/2000/svg" xmlns:xlink="http://www.w3.org/1999/xlink" x="0px" y="0px"
	 viewBox="0 0 79.2 79.2" enable-background="new 0 0 79.2 79.2" xml:space="preserve">
<g>
	<g>
		<path fill="#4B79BC" d="M39.228,75.282c-19.883,0-36-16.117-36-36s16.117-36,36-36V75.282z"/>
		<path fill="#6DAADC" d="M39.228,3.282c19.88,0,36,16.117,36,36s-16.119,36-36,36V3.282z"/>
	</g>
	<g>
		<path fill="#FFFFFF" d="M56.358,39.897c0,9.447-7.658,17.105-17.103,17.105c-9.445,0-17.104-7.658-17.104-17.105
			c0-9.445,7.656-17.104,17.104-17.104v17.104H56.358z"/>
		<path fill="#FFFFFF" d="M43.077,36.018V19.709c9.008,0,16.311,7.303,16.311,16.309H43.077z"/>
	</g>
</g>
</svg>
