<?xml version="1.0" encoding="iso-8859-1"?>
<!-- Generator: Adobe Illustrator 16.0.3, SVG Export Plug-In . SVG Version: 6.00 Build 0)  -->
<!DOCTYPE svg PUBLIC "-//W3C//DTD SVG 1.1//EN" "http://www.w3.org/Graphics/SVG/1.1/DTD/svg11.dtd">
<svg version="1.1" id="Layer_1" xmlns="http://www.w3.org/2000/svg" xmlns:xlink="http://www.w3.org/1999/xlink" x="0px" y="0px"
	 viewBox="0 0 79.2 79.2" enable-background="new 0 0 79.2 79.2" xml:space="preserve">
<g>
	<g>
		<g>
			<path fill="#4B79BC" d="M40.174,75.203c-19.883,0-36-16.117-36-36c0-19.881,16.117-36,36-36V75.203z"/>
		</g>
		<g>
			<path fill="#6DAADC" d="M40.174,3.203c19.881,0,36,16.119,36,36c0,19.883-16.119,36-36,36V3.203z"/>
		</g>
	</g>
	<g>
		<path fill="#FFFFFF" d="M51.608,22.757c-5.246,0-9.717,3.32-11.434,7.971c-1.715-4.65-6.186-7.971-11.434-7.971
			c-6.729,0-12.186,5.457-12.186,12.184c0,3.377,1.375,6.433,3.596,8.643l20.023,20.021l20.023-20.021
			c2.223-2.21,3.596-5.266,3.596-8.643C63.793,28.214,58.34,22.757,51.608,22.757z M42.071,52.34v2.198h-3.172v-2.176
			c-2.729-0.279-5.23-1.827-6.203-4.188l3.012-1.458c0.67,1.458,2.709,2.523,4.609,2.523c2.102,0,3.697-0.302,3.697-2.106
			c0-1.459-1.805-2.063-3.816-2.225c-3.402-0.321-6.736-0.993-6.715-5.066c0.027-3.058,2.664-4.537,5.512-4.77v-1.921h3.053v1.921
			c2.018,0.232,3.846,1.09,4.885,3.287l-2.846,1.319c-0.438-0.926-1.967-1.828-3.77-1.828c-1.646,0-3.244,0.625-3.27,1.991
			c0,1.389,1.715,1.689,3.428,1.827c3.451,0.372,7.178,1.342,7.178,5.464C47.653,50.142,45.708,51.969,42.071,52.34z"/>
	</g>
</g>
</svg>
