<?xml version="1.0" encoding="iso-8859-1"?>
<!-- Generator: Adobe Illustrator 16.0.3, SVG Export Plug-In . SVG Version: 6.00 Build 0)  -->
<!DOCTYPE svg PUBLIC "-//W3C//DTD SVG 1.1//EN" "http://www.w3.org/Graphics/SVG/1.1/DTD/svg11.dtd">
<svg version="1.1" id="Layer_1" xmlns="http://www.w3.org/2000/svg" xmlns:xlink="http://www.w3.org/1999/xlink" x="0px" y="0px"
	 viewBox="0 0 79.2 79.2" enable-background="new 0 0 79.2 79.2" xml:space="preserve">
<g>
	<g>
		<path fill="#4B79BC" d="M39.497,76.081c-19.883,0-36-16.117-36-36c0-19.881,16.117-36,36-36V76.081z"/>
		<path fill="#6DAADC" d="M39.497,4.081c19.882,0,36,16.119,36,36c0,19.883-16.118,36-36,36V4.081z"/>
	</g>
	<g>
		<path fill="#FFFFFF" d="M41.449,57.959c-0.004-0.061,0.066-0.115,0.036-0.162C41.471,57.872,41.343,57.909,41.449,57.959
			 M37.08,55.19c0.011,0.022,0.003,0.066,0.024,0.08c0.007-0.057,0.044-0.078,0.063-0.121C37.128,55.153,37.11,55.178,37.08,55.19
			 M40.894,52.313c0.049,0.02,0.102-0.059,0.139-0.095C40.977,52.241,40.925,52.266,40.894,52.313 M43.576,49.02
			c0.027,0.049,0.092,0.056,0.127,0.093c-0.009-0.04,0.016-0.116-0.015-0.134C43.664,49.006,43.625,49.02,43.576,49.02
			 M37.28,48.819c-0.054,0.262,0.033,0.516,0.141,0.697c0.2,0.344,0.604,0.676,0.918,0.895c0.041,0.029,0.088,0.078,0.14,0.069
			c-0.026-0.913-0.041-1.804-0.063-2.69h-0.025C37.948,47.985,37.39,48.292,37.28,48.819 M41.449,49.837
			c0.091-0.161,0.24-0.354,0.274-0.522c0.03-0.143-0.028-0.328,0-0.467c-0.265-0.616-0.804-0.94-1.459-1.14
			c-0.014,0.003-0.014,0.022-0.014,0.042c-0.011,1.057-0.048,2.088-0.074,3.129C40.628,50.659,41.171,50.323,41.449,49.837
			 M38.275,41.713c0-0.131,0.024-0.213-0.05-0.229c-0.041-0.008-0.033,0.01-0.063,0.014c-1.011,0.152-2.083,0.328-2.581,1.057
			c-0.123,0.184-0.257,0.498-0.228,0.778c0.025,0.236,0.201,0.466,0.327,0.655c0.137,0.203,0.262,0.432,0.404,0.576
			c0.126,0.127,0.314,0.252,0.479,0.361c0.517,0.344,1.121,0.578,1.8,0.721C38.347,44.414,38.275,43.009,38.275,41.713
			 M40.416,41.432c-0.036,1.402-0.075,2.803-0.112,4.203c1.058-0.271,2.21-0.604,2.844-1.338c0.198-0.229,0.374-0.551,0.404-0.91
			c0.071-0.889-0.468-1.296-1.009-1.553c-0.607-0.29-1.308-0.42-2.116-0.441C40.413,41.397,40.416,41.415,40.416,41.432
			 M40.578,35.84c-0.038,1.32-0.075,2.646-0.112,3.975c0.896,0.045,1.703-0.146,2.632-0.281c0.762-0.111,1.61-0.041,2.128-0.416
			c0.136-0.098,0.282-0.258,0.403-0.4c0.188-0.225,0.388-0.482,0.426-0.805c0.05-0.399-0.102-0.68-0.25-0.855
			c-0.368-0.434-1.104-0.459-1.915-0.401c-0.729,0.054-1.63,0.019-2.113-0.228c-0.247-0.125-0.436-0.385-0.291-0.709
			C41.141,35.715,40.859,35.776,40.578,35.84 M37.557,35.584c-0.019,0.005-0.008,0.029,0,0.041c0.127,0.348-0.063,0.607-0.265,0.736
			c-0.513,0.326-1.437,0.25-2.178,0.199c-0.786-0.054-1.564,0.068-1.951,0.482c-0.53,0.564-0.088,1.484,0.378,1.834
			c0.372,0.281,0.878,0.393,1.372,0.469c1.103,0.164,2.136,0.301,3.322,0.334c-0.038-1.324-0.049-2.676-0.086-4.002
			C37.978,35.622,37.762,35.608,37.557,35.584 M37.343,27.182c-0.113-0.18-0.195-0.393-0.277-0.602
			C37.121,26.811,37.223,27.065,37.343,27.182 M39.269,23.26h0.417c1.107,0.086,1.83,0.871,2.063,1.955
			c0.271,1.248-0.204,2.385-0.956,2.93c-0.023,1.082-0.058,2.148-0.09,3.227c0.988-0.266,1.913-0.713,2.408-1.527
			c0.281-0.469,0.258-1.021,0.211-1.739c-0.102-1.614,0.847-2.563,1.701-3.265c0.18-0.148,0.354-0.328,0.553-0.429
			c0.506-0.255,1.102-0.12,1.55,0.093s0.827,0.473,1.22,0.736c0.023-0.068,0.107-0.014,0.139,0c0.387,0.186,0.79,0.412,1.197,0.615
			c0.452,0.227,0.923,0.453,1.41,0.669c0.916,0.412,1.904,0.878,3.033,1.112c0.55,0.113,1.147,0.211,1.775,0.281
			c0.61,0.066,1.245,0.16,1.863,0.187c0.632,0.024,1.35-0.022,2.015,0c0.623,0.021,1.335,0.042,1.75,0.306
			c0.102,0.066,0.212,0.186,0.215,0.338c0.008,0.371-0.442,0.627-0.692,0.787c-0.319,0.21-0.62,0.372-0.957,0.51
			c-0.359,0.148-0.736,0.244-1.082,0.373c-0.354,0.135-0.707,0.268-1.083,0.363c0.094,0.176,0.29,0.438,0.163,0.762
			c-0.163,0.42-0.737,0.612-1.246,0.75c-0.566,0.154-1.166,0.229-1.686,0.281c0.21,0.477-0.191,0.768-0.543,0.948
			c-0.256,0.134-0.503,0.222-0.819,0.269c-0.656,0.104-1.398,0.053-1.925-0.093c0.252,1.235-1.672,1.259-2.569,1.003
			c0.199,0.672-0.581,0.795-1.081,0.869c-0.528,0.08-1.021,0.09-1.462,0.135c0.074,0.119,0.194,0.199,0.288,0.309
			c0.588,0.674,1.289,2.097,0.58,3.172c-0.321,0.486-0.813,0.84-1.333,1.135c-0.527,0.301-1.121,0.529-1.765,0.672
			c0.072,0.126,0.194,0.201,0.292,0.307c0.283,0.307,0.545,0.721,0.665,1.219c0.184,0.756-0.044,1.521-0.34,2.061
			c-0.587,1.07-1.606,1.762-2.744,2.208c0.626,0.372,1.116,0.972,1.335,1.819c0.028,0.108,0.099,0.283,0.089,0.387
			c-0.051,0.531-0.129,0.922-0.316,1.285c-0.167,0.328-0.396,0.625-0.679,0.883c-0.281,0.256-0.636,0.412-0.956,0.589
			c-0.335,0.183-0.624,0.39-0.882,0.671c0.39,0.433,0.687,1.049,0.703,1.859c0.02,0.816-0.327,1.445-0.643,1.928
			c0.268,0.359,0.676,0.725,0.604,1.416c-0.009,0.104-0.066,0.191-0.087,0.295c-0.023,0.125-0.013,0.244-0.037,0.348
			c-0.179,0.736-0.861,1.265-1.536,1.474c0.045,0.085,0.141,0.124,0.213,0.187c0.21,0.182,0.446,0.457,0.431,0.87
			c-0.016,0.343-0.168,0.593-0.278,0.87c0.213,0.27,0.338,0.891,0.188,1.324c-0.057,0.164-0.176,0.33-0.328,0.373
			c-0.083,0.027-0.247-0.006-0.313,0.016c-0.045,0.225-0.037,0.516-0.178,0.615c-0.275,0.193-0.792,0.1-0.919-0.135
			c-0.186-0.346-0.038-0.826-0.074-1.271c-0.182-0.136-0.405-0.161-0.58-0.267c-0.592-0.368-0.353-1.461-0.063-2.009
			c-0.151-0.223-0.352-0.407-0.503-0.655c-0.135-0.221-0.297-0.551-0.316-0.855c-0.027-0.438,0.154-0.813,0.316-1.125
			c0.165-0.322,0.371-0.596,0.541-0.869c-0.365-0.213-0.676-0.449-0.896-0.777c-0.242-0.361-0.3-0.791-0.238-1.391
			c0.1-0.963,0.478-1.641,0.958-2.209c0.018-0.021,0.082-0.061,0.05-0.107c-0.938-0.625-2.071-1.162-2.606-2.234
			c-0.307-0.613-0.297-1.359,0-1.994c0.24-0.516,0.625-0.895,1.031-1.244c0.006-0.004,0.08-0.018,0.039-0.053
			c-1.342-0.551-2.523-1.482-3.01-3.025c-0.03-0.098-0.091-0.209-0.1-0.293c-0.035-0.296,0.037-0.652,0.112-0.91
			c0.202-0.688,0.687-1.205,1.183-1.578c0.027-0.022,0.113-0.09,0.09-0.109c-1.304-0.354-2.717-0.572-3.352-1.619
			c-0.334-0.553-0.371-1.451-0.162-2.127c0.178-0.568,0.477-0.99,0.844-1.365c0.038-0.039,0.124-0.072,0.112-0.146
			c-0.442-0.008-0.957-0.059-1.473-0.147c-0.411-0.069-1.012-0.181-1.12-0.534c-0.023-0.078-0.028-0.184,0.026-0.268
			c-1.021,0.344-2.495,0.113-2.545-1.059c-0.777,0.354-2.046,0.182-2.731-0.174c-0.233-0.121-0.509-0.281-0.566-0.547
			c-0.032-0.144,0.017-0.275,0.039-0.402c-0.502-0.038-1.079-0.116-1.601-0.256c-0.526-0.139-1.156-0.343-1.323-0.787
			c-0.079-0.214-0.022-0.43,0.063-0.578c0.029-0.048,0.118-0.096,0.077-0.16c-1.201-0.23-2.262-0.657-3.11-1.297
			c-0.272-0.205-0.55-0.459-0.679-0.802v-0.134c0.063-0.162,0.164-0.236,0.302-0.297c0.55-0.241,1.473-0.167,2.215-0.133
			c0.823,0.037,1.624-0.018,2.292-0.095c1.438-0.159,2.747-0.449,3.978-0.843c1.475-0.469,2.942-1.127,4.256-1.818
			C30.491,25.19,30.684,25.1,30.885,25c0.55-0.277,1.154-0.816,1.912-0.803c0.454,0.008,0.77,0.246,1.045,0.469
			c0.855,0.689,1.657,1.418,1.764,2.863c0.042,0.562-0.061,1.006,0.025,1.471c0.239,1.283,1.233,1.77,2.429,2.143
			c0.012-0.795-0.063-1.582-0.049-2.303c0.005-0.26-0.01-0.51-0.014-0.777c-0.35-0.346-0.734-0.644-0.944-1.123
			c-0.222-0.51-0.175-1.197,0-1.78C37.371,24.11,38.094,23.37,39.269,23.26"/>
	</g>
</g>
</svg>
