<?xml version="1.0" encoding="iso-8859-1"?>
<!-- Generator: Adobe Illustrator 16.0.3, SVG Export Plug-In . SVG Version: 6.00 Build 0)  -->
<!DOCTYPE svg PUBLIC "-//W3C//DTD SVG 1.1//EN" "http://www.w3.org/Graphics/SVG/1.1/DTD/svg11.dtd">
<svg version="1.1" id="Layer_1" xmlns="http://www.w3.org/2000/svg" xmlns:xlink="http://www.w3.org/1999/xlink" x="0px" y="0px"
	 width="79.2px" height="79.2px" viewBox="0 0 79.2 79.2" enable-background="new 0 0 79.2 79.2" xml:space="preserve">
<g>
	<g>
		<path fill="#4C79BC" d="M40.19,75.407c-19.882,0-36-16.117-36-36c0-19.881,16.118-36,36-36V75.407z"/>
		<path fill="#6DAADC" d="M40.19,3.407c19.883,0,36,16.119,36,36c0,19.883-16.117,36-36,36V3.407z"/>
	</g>
</g>
<path fill-rule="evenodd" clip-rule="evenodd" fill="#FFFFFF" d="M58.504,54.98c-1.035,0-1.996,0-3.047,0
	c0,1.087,0.031,2.132-0.01,3.173c-0.053,1.34-0.92,2.263-2.242,2.467c-1.504,0.232-2.867-0.809-2.977-2.331
	c-0.063-0.86-0.027-1.728-0.035-2.592c-0.004-0.222,0-0.442,0-0.695c-6.671,0-13.269,0-19.959,0c0,0.625,0,1.254,0,1.884
	c-0.001,0.39,0.01,0.781-0.006,1.172c-0.064,1.527-1.167,2.596-2.662,2.586c-1.47-0.01-2.553-1.058-2.623-2.561
	c-0.025-0.513-0.008-1.028-0.009-1.543c-0.001-0.493-0.001-0.984-0.001-1.559c-1.021,0-2.014,0-3.074,0c0-0.302,0-0.522,0-0.743
	c0-5.886-0.051-11.772,0.031-17.656c0.025-1.84,0.396-3.676,0.628-5.51c0.341-2.693,0.735-5.379,1.037-8.076
	c0.221-1.985,1.167-3.41,2.916-4.358c2.071-1.124,4.322-1.679,6.604-2.124c2.505-0.489,5.032-0.917,7.593-0.793
	c4.371,0.211,8.676,0.823,12.721,2.638c1.768,0.793,3.066,2.021,3.375,4.02c0.299,1.93,0.512,3.873,0.764,5.81
	c0.305,2.366,0.613,4.73,0.916,7.097c0.045,0.366,0.09,0.736,0.09,1.105c0.008,5.989,0.006,11.978,0.004,17.966
	C58.538,54.536,58.52,54.717,58.504,54.98z M40.209,37.485c2.88,0,5.762,0,8.643-0.001c1.646,0,3.291,0.008,4.938-0.002
	c1.111-0.008,1.561-0.488,1.535-1.607c-0.002-0.123-0.006-0.247-0.021-0.37c-0.461-3.318-0.904-6.641-1.395-9.955
	c-0.213-1.43-0.813-1.916-2.252-1.917c-7.635-0.007-15.269-0.007-22.902,0c-1.444,0.002-2.022,0.485-2.234,1.925
	c-0.485,3.295-0.928,6.595-1.395,9.894c-0.208,1.465,0.273,2.033,1.75,2.033C31.32,37.485,35.766,37.484,40.209,37.485z
	 M40.213,21.386c2.467,0,4.935,0.005,7.402-0.003c0.996-0.003,1.553-0.849,1.111-1.66c-0.26-0.48-0.707-0.563-1.211-0.563
	c-4.873,0.005-9.747,0.003-14.62,0.003c-0.104,0-0.207-0.001-0.309,0.008c-0.659,0.061-1.041,0.494-1.019,1.152
	c0.022,0.681,0.451,1.059,1.241,1.061C35.277,21.389,37.746,21.386,40.213,21.386z M30.118,46.479
	c-0.006-1.416-1.131-2.518-2.563-2.506c-1.391,0.011-2.498,1.12-2.502,2.509c-0.007,1.397,1.145,2.559,2.536,2.559
	C28.98,49.041,30.124,47.882,30.118,46.479z M55.362,46.484c-0.01-1.418-1.131-2.521-2.561-2.511
	c-1.385,0.01-2.498,1.121-2.512,2.505c-0.01,1.391,1.148,2.562,2.537,2.563C54.219,49.042,55.368,47.884,55.362,46.484z"/>
</svg>
