<?xml version="1.0" encoding="iso-8859-1"?>
<!-- Generator: Adobe Illustrator 16.0.3, SVG Export Plug-In . SVG Version: 6.00 Build 0)  -->
<!DOCTYPE svg PUBLIC "-//W3C//DTD SVG 1.1//EN" "http://www.w3.org/Graphics/SVG/1.1/DTD/svg11.dtd">
<svg version="1.1" id="Layer_1" xmlns="http://www.w3.org/2000/svg" xmlns:xlink="http://www.w3.org/1999/xlink" x="0px" y="0px"
	 viewBox="0 0 79.2 79.2" enable-background="new 0 0 79.2 79.2" xml:space="preserve">
<g>
	<g>
		<path fill="#4B79BC" d="M39.359,75.407c-19.883,0-36-16.117-36-36c0-19.881,16.117-36,36-36V75.407z"/>
		<path fill="#6DAADC" d="M39.359,3.407c19.881,0,36,16.119,36,36c0,19.883-16.119,36-36,36V3.407z"/>
	</g>
	<path fill="#FFFFFF" d="M56.854,30.602c-1.288,0.572-2.671,0.957-4.125,1.131c1.484-0.889,2.622-2.295,3.157-3.973
		c-1.387,0.822-2.923,1.422-4.56,1.742c-1.31-1.395-3.177-2.268-5.24-2.268c-3.966,0-7.182,3.217-7.182,7.182
		c0,0.563,0.064,1.109,0.187,1.635c-5.968-0.299-11.26-3.156-14.8-7.5c-0.619,1.059-0.974,2.291-0.974,3.607
		c0,2.492,1.267,4.689,3.196,5.977c-1.179-0.037-2.285-0.359-3.253-0.896c0,0.029,0,0.061,0,0.09c0,3.479,2.475,6.381,5.76,7.041
		c-0.602,0.164-1.236,0.252-1.895,0.252c-0.463,0-0.913-0.045-1.35-0.129c0.913,2.852,3.565,4.93,6.706,4.986
		c-2.456,1.928-5.551,3.074-8.915,3.074c-0.58,0-1.153-0.033-1.714-0.102c3.178,2.041,6.951,3.229,11.007,3.229
		c13.208,0,20.43-10.943,20.43-20.43c0-0.311-0.006-0.623-0.019-0.932C54.673,33.307,55.892,32.042,56.854,30.602z"/>
</g>
</svg>
