<?xml version="1.0" encoding="iso-8859-1"?>
<!-- Generator: Adobe Illustrator 16.0.3, SVG Export Plug-In . SVG Version: 6.00 Build 0)  -->
<!DOCTYPE svg PUBLIC "-//W3C//DTD SVG 1.1//EN" "http://www.w3.org/Graphics/SVG/1.1/DTD/svg11.dtd">
<svg version="1.1" id="Layer_1" xmlns="http://www.w3.org/2000/svg" xmlns:xlink="http://www.w3.org/1999/xlink" x="0px" y="0px"
	 viewBox="0 0 79.2 79.2" enable-background="new 0 0 79.2 79.2" xml:space="preserve">
<g>
	<g>
		<g>
			<path fill="#4B79BC" d="M39.358,75.367c-19.883,0-36-16.117-36-36c0-19.881,16.117-36,36-36V75.367z"/>
		</g>
		<g>
			<path fill="#6DAADC" d="M39.358,3.367c19.882,0,36,16.119,36,36c0,19.883-16.118,36-36,36V3.367z"/>
		</g>
	</g>
	<g>
		<g>
			<path fill="#FFFFFF" d="M58.691,53.952H20.025c-0.553,0-1-0.447-1-1V25.783c0-0.553,0.447-1,1-1h38.666c0.553,0,1,0.447,1,1
				v27.169C59.691,53.504,59.244,53.952,58.691,53.952z"/>
		</g>
	</g>
	<g>
		<polygon fill="#4B79BC" points="33.708,30.824 48.507,39.367 33.708,47.912 		"/>
	</g>
</g>
</svg>
