<?xml version="1.0" encoding="iso-8859-1"?>
<!-- Generator: Adobe Illustrator 16.0.3, SVG Export Plug-In . SVG Version: 6.00 Build 0)  -->
<!DOCTYPE svg PUBLIC "-//W3C//DTD SVG 1.1//EN" "http://www.w3.org/Graphics/SVG/1.1/DTD/svg11.dtd">
<svg version="1.1" id="Layer_1" xmlns="http://www.w3.org/2000/svg" xmlns:xlink="http://www.w3.org/1999/xlink" x="0px" y="0px"
	 viewBox="0 0 79.2 79.2" enable-background="new 0 0 79.2 79.2" xml:space="preserve">
<g>
	<g>
		<path fill="#4B79BC" d="M39.976,75.081c-19.883,0-36-16.117-36-36s16.117-36,36-36V75.081z"/>
		<path fill="#6DAADC" d="M39.976,3.081c19.881,0,36,16.117,36,36s-16.119,36-36,36V3.081z"/>
	</g>
	<path fill="#FFFFFF" d="M46.138,35.735c-0.047,0-0.094,0.01-0.139,0.014l0.027-0.219c0-4.639-3.592-8.398-8.229-8.398
		c-4.639,0-8.232,3.76-8.232,8.398l0.029,0.219c-0.047-0.004-0.092-0.014-0.139-0.014c-0.893,0-1.582,0.721-1.582,1.611l0.131,1.053
		c0.109,0.693,0.727,1.223,1.451,1.223c0.215,0,0.416-0.052,0.604-0.136l0.189,1.519l0,0c0.572,3.607,3.781,6.365,7.547,6.365
		c3.768,0,6.977-2.758,7.547-6.365h0.002l0.008-0.04v-0.002l0.184-1.476c0.184,0.083,0.387,0.135,0.602,0.135
		c0.723,0,1.342-0.529,1.449-1.223l0.002-0.007v-0.001l0.129-1.045C47.718,36.456,47.029,35.735,46.138,35.735z M41.957,42.333
		c-1.146,1.146-2.654,1.721-4.16,1.721c-1.504,0-3.012-0.574-4.158-1.721c-0.322-0.322-0.322-0.846,0-1.169s0.846-0.323,1.17,0
		c1.648,1.646,4.328,1.648,5.979,0c0.322-0.323,0.846-0.323,1.17,0C42.279,41.487,42.279,42.01,41.957,42.333z"/>
	<path fill="#FFFFFF" d="M63.332,29.776v-1.222v-0.519v-8.271c0-0.623-0.506-1.128-1.129-1.128c-0.314,0-0.596,0.129-0.801,0.335
		v5.113H61.4c-0.002,0.156-0.129,0.283-0.285,0.283c-0.139,0-0.248-0.101-0.273-0.232h-0.01v-0.051v-6.967
		c0-0.623-0.506-1.129-1.129-1.129c-0.361,0-0.68,0.174-0.885,0.438v7.658h-0.004c0,0.156-0.125,0.283-0.283,0.283
		c-0.139,0-0.248-0.101-0.273-0.232h-0.01v-0.051v-8.382c0-0.622-0.506-1.128-1.129-1.128s-1.129,0.506-1.129,1.128v8.382v0.051
		h-0.012c-0.023,0.132-0.135,0.232-0.273,0.232s-0.248-0.101-0.273-0.232h-0.01v-0.051v-6.793c0-0.623-0.506-1.129-1.131-1.129
		c-0.623,0-1.127,0.506-1.127,1.129v6.844v3.086v0.25l-2.109-2.352c-0.473-0.525-1.279-0.578-1.791-0.119
		c-0.514,0.461-0.584,1.299-0.154,1.86l4.85,6.253l0.006,0.001c0.047,0.058,0.1,0.11,0.146,0.167L45.08,47.757
		c-1.877,1.849-4.459,2.99-7.281,2.99c-2.824,0-5.406-1.142-7.285-2.989l-4.379,1.463c-0.234,0.062-0.463,0.134-0.682,0.227
		l-0.006,0.002h0.002c-1.881,0.795-3.201,2.658-3.201,4.83v5.244h0.016c0.189,3.482,7.064,6.283,15.535,6.283
		c8.469,0,15.344-2.801,15.531-6.283h0.018V54.28l8.361-20.63c0.838-0.805,1.418-1.876,1.576-3.088
		c0.006-0.036,0.012-0.07,0.018-0.107c0.021-0.191,0.033-0.385,0.033-0.581C63.335,29.84,63.332,29.809,63.332,29.776z"/>
</g>
</svg>
