<?xml version="1.0" encoding="iso-8859-1"?>
<!-- Generator: Adobe Illustrator 16.0.3, SVG Export Plug-In . SVG Version: 6.00 Build 0)  -->
<!DOCTYPE svg PUBLIC "-//W3C//DTD SVG 1.1//EN" "http://www.w3.org/Graphics/SVG/1.1/DTD/svg11.dtd">
<svg version="1.1" id="Layer_1" xmlns="http://www.w3.org/2000/svg" xmlns:xlink="http://www.w3.org/1999/xlink" x="0px" y="0px"
	 viewBox="0 0 79.199 79.2" enable-background="new 0 0 79.199 79.2" xml:space="preserve">
<g>
	<defs>
		<rect id="SVGID_1_" y="0" width="79.2" height="79.2"/>
	</defs>
	<clipPath id="SVGID_2_">
		<use xlink:href="#SVGID_1_"  overflow="visible"/>
	</clipPath>
	<path clip-path="url(#SVGID_2_)" fill="#4C79BC" d="M38.858,74.867c-19.883,0-36-16.117-36-36c0-19.881,16.117-36,36-36V74.867z"/>
	<path clip-path="url(#SVGID_2_)" fill="#6DAADC" d="M38.858,2.867c19.882,0,36,16.119,36,36c0,19.883-16.117,36-36,36V2.867z"/>
	<path clip-path="url(#SVGID_2_)" fill="#FFFFFF" d="M51.253,32.724c-0.096-0.375-0.295-0.611-0.502-0.969
		c-0.213-0.367-0.438-0.578-1.281-1.159c-4.398-2.919-7.888-1.014-11.125,2.453c-0.368-2.372-1.817-3.886-3.805-4.767
		c-1.937-0.859-4.001-1.441-6.031-2.073c-0.777-0.242-1.615-0.284-2.65-0.454c0.498,0.611,0.789,1.053,1.144,1.425
		c0.949,0.994,1.91,2.266,2.621,3.394c0.443,0.701,1.636,3.345,1.091,4.29c-2.695,0.531-6.046-0.501-8.908-1.345
		c-1.696-0.5-5.193-2.163-6.98-2.535c0.495,1.632,1.3,3.105,2.364,4.433c2.645,3.301,6.175,5.131,10.226,6.044
		c0.65,0.146,0.827,0.408,0.545,0.942c-0.338,0.64-0.676,1.307-1.15,1.842c-1.828,2.063-4.136,3.523-6.447,4.972
		c-0.496,0.311-0.996,0.618-1.597,0.991c2.254,0.868,4.351,1.677,6.501,2.505c0.776-2.034,2.266-3.365,3.75-4.692
		c0.176-0.157,0.539-0.129,0.818-0.143c1.865-0.087,3.759,0.018,5.591-0.272c2.347-0.371,4.944-0.744,6.464-2.216
		c1.573-1.523,2.038-4.181,2.529-6.575c0.248-1.205,0.692-2.42,1.297-3.488c0.822-1.453,2.169-2.336,3.854-2.665
		c0.682-0.134,1.436,0.174,1.734,0.115C51.288,32.759,51.253,32.724,51.253,32.724 M46.425,31.231c-0.236,0-0.43-0.192-0.43-0.43
		c0-0.237,0.193-0.429,0.43-0.429c0.237,0,0.431,0.192,0.431,0.429C46.855,31.039,46.662,31.231,46.425,31.231"/>
	<path clip-path="url(#SVGID_2_)" fill="#FFFFFF" d="M61.919,32.944c-0.31-1.652-1.9-2.741-3.555-2.431
		c-1.288,0.242-2.232,1.263-2.439,2.485c-0.637-1.063-1.888-1.673-3.177-1.431c-0.471,0.088-0.891,0.285-1.247,0.555
		c0,0,0.553,0.903,0.359,1.127c-0.196,0.228-1.186-0.187-1.186-0.187c-0.345,0.604-0.496,1.322-0.358,2.059
		c0.156,0.83,0.634,1.517,1.282,1.957l5.841,3.996l3.995-5.84C61.878,34.587,62.075,33.773,61.919,32.944"/>
</g>
</svg>
