<?xml version="1.0" encoding="utf-8"?>
<!-- Generator: Adobe Illustrator 16.0.3, SVG Export Plug-In . SVG Version: 6.00 Build 0)  -->
<!DOCTYPE svg PUBLIC "-//W3C//DTD SVG 1.1//EN" "http://www.w3.org/Graphics/SVG/1.1/DTD/svg11.dtd">
<svg version="1.1" id="Layer_1" xmlns="http://www.w3.org/2000/svg" xmlns:xlink="http://www.w3.org/1999/xlink" x="0px" y="0px"
	 viewBox="0 0 79.199 79.2" enable-background="new 0 0 79.199 79.2" xml:space="preserve">
<g>
	<defs>
		<rect id="SVGID_1_" y="0" width="79.2" height="79.2"/>
	</defs>
	<clipPath id="SVGID_2_">
		<use xlink:href="#SVGID_1_"  overflow="visible"/>
	</clipPath>
	<path clip-path="url(#SVGID_2_)" fill="#4C79BC" d="M38.858,74.867c-19.883,0-36-16.117-36-36c0-19.881,16.117-36,36-36V74.867z"/>
	<path clip-path="url(#SVGID_2_)" fill="#6DAADD" d="M38.858,2.867c19.882,0,36,16.119,36,36c0,19.883-16.117,36-36,36V2.867z"/>
	<path clip-path="url(#SVGID_2_)" fill="#FFFFFF" d="M62.081,53.527c-0.294-0.38-0.65-0.726-0.871-1.145
		c-0.949-1.809-2.516-2.627-4.453-2.927c-0.974-0.151-1.931-0.427-2.907-0.549c-3.897-0.486-5.674-2.929-6.47-6.56
		c-0.528-2.415-1.465-4.74-2.531-7.018c-3.052,5.108,1.073,8.807,2.527,13.199c-1.994,0.524-3.904,1.025-5.814,1.527
		c-0.024,0.216-0.05,0.432-0.073,0.647c2.361,0.902,4.722,1.805,7.082,2.707c-0.029,0.227-0.057,0.452-0.086,0.68
		c-0.59,0.123-1.189,0.383-1.77,0.347c-4.716-0.296-8.95,0.932-13.04,3.337c-3.132,1.843-6.643,2.967-10.435,2.362
		c-2.206-0.353-3.634-1.774-4.674-3.59c-1.069-1.863-0.561-3.688,1.616-4.533c2.5-0.971,5.158-1.733,7.811-2.05
		c2.493-0.298,3.875-1.024,4.668-3.648c0.911-3.016,2.249-5.875,1.769-9.124c-0.078-0.532-0.425-1.024-0.648-1.535
		c-0.357,0.436-0.877,0.818-1.045,1.318c-0.878,2.624-1.675,5.276-2.485,7.924c-0.576,1.884-1.851,3.029-3.724,3.505
		c-1.432,0.363-2.872,0.724-4.33,0.951c-2.107,0.329-3.893,1.099-5.121,2.947c-0.308,0.463-0.832,0.782-1.257,1.167
		c-0.157-0.084-0.315-0.169-0.473-0.253c0.097-0.528,0.008-1.257,0.323-1.548c1.326-1.225,2.607-2.898,4.205-3.355
		c5.69-1.626,8.86-5.238,9.866-10.941c0.342-1.939,0.706-3.876,0.982-5.825c0.278-1.964,1.28-3.12,3.171-3.883
		c4.116-1.659,8.041-1.476,11.965,0.508c1.295,0.656,2.005,1.636,2.016,3.051c0.032,4.158,1.262,8.027,2.896,11.771
		c0.413,0.945,1.214,1.907,2.094,2.424c1.904,1.116,4.049,1.825,5.953,2.942c1.39,0.816,2.637,1.936,3.77,3.093
		c0.366,0.375,0.166,1.304,0.226,1.979C62.568,53.462,62.325,53.494,62.081,53.527"/>
	<path clip-path="url(#SVGID_2_)" fill="#FFFFFF" d="M37.243,58.317c3.573-1.732,7.17-3.374,11.386-2.42
		c0.692,0.157,1.771-0.166,2.231-0.669c0.273-0.297-0.086-1.631-0.559-2.065c-1.105-1.016-2.45-1.771-3.961-2.813
		c3.573,0.347,7.046,0.485,10.44,1.072c2.8,0.484,4.192,2.266,4.044,4.298c-0.177,2.449-1.648,4.253-4.404,4.397
		c-2.4,0.125-4.923-0.207-7.242-0.863C45.233,58.138,41.313,57.908,37.243,58.317"/>
	<path clip-path="url(#SVGID_2_)" fill="#FFFFFF" d="M42.692,19.324c0.001,2.622-1.732,4.744-3.89,4.76
		c-2.102,0.015-3.914-2.16-3.953-4.745c-0.034-2.301,1.932-4.602,3.936-4.605C40.804,14.731,42.691,16.949,42.692,19.324"/>
</g>
</svg>
