<?xml version="1.0" encoding="iso-8859-1"?>
<!-- Generator: Adobe Illustrator 16.0.3, SVG Export Plug-In . SVG Version: 6.00 Build 0)  -->
<!DOCTYPE svg PUBLIC "-//W3C//DTD SVG 1.1//EN" "http://www.w3.org/Graphics/SVG/1.1/DTD/svg11.dtd">
<svg version="1.1" id="Layer_1" xmlns="http://www.w3.org/2000/svg" xmlns:xlink="http://www.w3.org/1999/xlink" x="0px" y="0px"
	 viewBox="0 0 79.2 79.2" enable-background="new 0 0 79.2 79.2" xml:space="preserve">
<g>
	<g>
		<path fill="#4B79BC" d="M39.302,75.407c-19.883,0-36-16.117-36-36c0-19.881,16.117-36,36-36V75.407z"/>
		<path fill="#6DAADC" d="M39.302,3.407c19.881,0,36,16.119,36,36c0,19.883-16.119,36-36,36V3.407z"/>
	</g>
	<path fill="#FFFFFF" d="M20.302,39.409c0,7.518,4.371,14.021,10.709,17.096l-9.063-24.832
		C20.892,34.038,20.302,36.651,20.302,39.409z M52.13,38.448c0-2.348-0.846-3.977-1.566-5.24c-0.963-1.566-1.865-2.889-1.865-4.457
		c0-1.746,1.322-3.371,3.191-3.371c0.08,0,0.162,0.01,0.244,0.018c-3.379-3.098-7.885-4.99-12.83-4.99
		c-6.641,0-12.479,3.406-15.875,8.564c0.447,0.014,0.865,0.023,1.221,0.023c1.988,0,5.064-0.244,5.064-0.244
		c1.023-0.057,1.145,1.443,0.119,1.568c0,0-1.025,0.119-2.174,0.18l6.922,20.58l4.156-12.469l-2.961-8.111
		c-1.021-0.061-1.99-0.18-1.99-0.18c-1.025-0.063-0.904-1.625,0.121-1.568c0,0,3.137,0.244,5.002,0.244
		c1.986,0,5.066-0.244,5.066-0.244c1.021-0.057,1.143,1.443,0.119,1.568c0,0-1.027,0.119-2.174,0.18l6.867,20.424l1.896-6.33
		C51.646,42.12,52.13,40.077,52.13,38.448z M39.638,41.069l-5.703,16.568c1.701,0.5,3.5,0.771,5.369,0.771
		c2.211,0,4.334-0.383,6.309-1.078c-0.051-0.082-0.098-0.166-0.135-0.26L39.638,41.069z M55.974,30.29
		c0.086,0.607,0.131,1.256,0.131,1.955c0,1.928-0.361,4.094-1.445,6.807l-5.803,16.777c5.648-3.291,9.445-9.41,9.445-16.42
		C58.302,36.104,57.46,32.999,55.974,30.29z"/>
</g>

</svg>
